%TF.GenerationSoftware,KiCad,Pcbnew,10.0.6*%
%TF.CreationDate,2026-10-10T18:05:47-04:00*%
%TF.ProjectId,esp32-wavplayer-final,65737033-322d-4776-9176-706c61796572,rev?*%
%TF.SameCoordinates,Original*%
%TF.FileFunction,Legend,Bot*%
%TF.FilePolarity,Positive*%
%FSLAX46Y46*%
G04 Gerber Fmt 4.6, Leading zero omitted, Abs format (unit mm)*
G04 Created by KiCad (PCBNEW 10.0.6) date 2026-10-10 18:05:47*
%MOMM*%
%LPD*%
G01*
G04 APERTURE LIST*
%ADD10C,0.150000*%
%ADD11C,0.120000*%
%ADD12C,0.100000*%
G04 APERTURE END LIST*
D10*
X90554819Y-51699405D02*
X89554819Y-51699405D01*
X89554819Y-51699405D02*
X89554819Y-51937500D01*
X89554819Y-51937500D02*
X89602438Y-52080357D01*
X89602438Y-52080357D02*
X89697676Y-52175595D01*
X89697676Y-52175595D02*
X89792914Y-52223214D01*
X89792914Y-52223214D02*
X89983390Y-52270833D01*
X89983390Y-52270833D02*
X90126247Y-52270833D01*
X90126247Y-52270833D02*
X90316723Y-52223214D01*
X90316723Y-52223214D02*
X90411961Y-52175595D01*
X90411961Y-52175595D02*
X90507200Y-52080357D01*
X90507200Y-52080357D02*
X90554819Y-51937500D01*
X90554819Y-51937500D02*
X90554819Y-51699405D01*
X90554819Y-53270833D02*
X90078628Y-52937500D01*
X90554819Y-52699405D02*
X89554819Y-52699405D01*
X89554819Y-52699405D02*
X89554819Y-53080357D01*
X89554819Y-53080357D02*
X89602438Y-53175595D01*
X89602438Y-53175595D02*
X89650057Y-53223214D01*
X89650057Y-53223214D02*
X89745295Y-53270833D01*
X89745295Y-53270833D02*
X89888152Y-53270833D01*
X89888152Y-53270833D02*
X89983390Y-53223214D01*
X89983390Y-53223214D02*
X90031009Y-53175595D01*
X90031009Y-53175595D02*
X90078628Y-53080357D01*
X90078628Y-53080357D02*
X90078628Y-52699405D01*
X89554819Y-54175595D02*
X89554819Y-53699405D01*
X89554819Y-53699405D02*
X90031009Y-53651786D01*
X90031009Y-53651786D02*
X89983390Y-53699405D01*
X89983390Y-53699405D02*
X89935771Y-53794643D01*
X89935771Y-53794643D02*
X89935771Y-54032738D01*
X89935771Y-54032738D02*
X89983390Y-54127976D01*
X89983390Y-54127976D02*
X90031009Y-54175595D01*
X90031009Y-54175595D02*
X90126247Y-54223214D01*
X90126247Y-54223214D02*
X90364342Y-54223214D01*
X90364342Y-54223214D02*
X90459580Y-54175595D01*
X90459580Y-54175595D02*
X90507200Y-54127976D01*
X90507200Y-54127976D02*
X90554819Y-54032738D01*
X90554819Y-54032738D02*
X90554819Y-53794643D01*
X90554819Y-53794643D02*
X90507200Y-53699405D01*
X90507200Y-53699405D02*
X90459580Y-53651786D01*
X76051009Y-51895238D02*
X76098628Y-52038095D01*
X76098628Y-52038095D02*
X76146247Y-52085714D01*
X76146247Y-52085714D02*
X76241485Y-52133333D01*
X76241485Y-52133333D02*
X76384342Y-52133333D01*
X76384342Y-52133333D02*
X76479580Y-52085714D01*
X76479580Y-52085714D02*
X76527200Y-52038095D01*
X76527200Y-52038095D02*
X76574819Y-51942857D01*
X76574819Y-51942857D02*
X76574819Y-51561905D01*
X76574819Y-51561905D02*
X75574819Y-51561905D01*
X75574819Y-51561905D02*
X75574819Y-51895238D01*
X75574819Y-51895238D02*
X75622438Y-51990476D01*
X75622438Y-51990476D02*
X75670057Y-52038095D01*
X75670057Y-52038095D02*
X75765295Y-52085714D01*
X75765295Y-52085714D02*
X75860533Y-52085714D01*
X75860533Y-52085714D02*
X75955771Y-52038095D01*
X75955771Y-52038095D02*
X76003390Y-51990476D01*
X76003390Y-51990476D02*
X76051009Y-51895238D01*
X76051009Y-51895238D02*
X76051009Y-51561905D01*
X76479580Y-53133333D02*
X76527200Y-53085714D01*
X76527200Y-53085714D02*
X76574819Y-52942857D01*
X76574819Y-52942857D02*
X76574819Y-52847619D01*
X76574819Y-52847619D02*
X76527200Y-52704762D01*
X76527200Y-52704762D02*
X76431961Y-52609524D01*
X76431961Y-52609524D02*
X76336723Y-52561905D01*
X76336723Y-52561905D02*
X76146247Y-52514286D01*
X76146247Y-52514286D02*
X76003390Y-52514286D01*
X76003390Y-52514286D02*
X75812914Y-52561905D01*
X75812914Y-52561905D02*
X75717676Y-52609524D01*
X75717676Y-52609524D02*
X75622438Y-52704762D01*
X75622438Y-52704762D02*
X75574819Y-52847619D01*
X75574819Y-52847619D02*
X75574819Y-52942857D01*
X75574819Y-52942857D02*
X75622438Y-53085714D01*
X75622438Y-53085714D02*
X75670057Y-53133333D01*
X76479580Y-54133333D02*
X76527200Y-54085714D01*
X76527200Y-54085714D02*
X76574819Y-53942857D01*
X76574819Y-53942857D02*
X76574819Y-53847619D01*
X76574819Y-53847619D02*
X76527200Y-53704762D01*
X76527200Y-53704762D02*
X76431961Y-53609524D01*
X76431961Y-53609524D02*
X76336723Y-53561905D01*
X76336723Y-53561905D02*
X76146247Y-53514286D01*
X76146247Y-53514286D02*
X76003390Y-53514286D01*
X76003390Y-53514286D02*
X75812914Y-53561905D01*
X75812914Y-53561905D02*
X75717676Y-53609524D01*
X75717676Y-53609524D02*
X75622438Y-53704762D01*
X75622438Y-53704762D02*
X75574819Y-53847619D01*
X75574819Y-53847619D02*
X75574819Y-53942857D01*
X75574819Y-53942857D02*
X75622438Y-54085714D01*
X75622438Y-54085714D02*
X75670057Y-54133333D01*
X75574819Y-54466667D02*
X75574819Y-55085714D01*
X75574819Y-55085714D02*
X75955771Y-54752381D01*
X75955771Y-54752381D02*
X75955771Y-54895238D01*
X75955771Y-54895238D02*
X76003390Y-54990476D01*
X76003390Y-54990476D02*
X76051009Y-55038095D01*
X76051009Y-55038095D02*
X76146247Y-55085714D01*
X76146247Y-55085714D02*
X76384342Y-55085714D01*
X76384342Y-55085714D02*
X76479580Y-55038095D01*
X76479580Y-55038095D02*
X76527200Y-54990476D01*
X76527200Y-54990476D02*
X76574819Y-54895238D01*
X76574819Y-54895238D02*
X76574819Y-54609524D01*
X76574819Y-54609524D02*
X76527200Y-54514286D01*
X76527200Y-54514286D02*
X76479580Y-54466667D01*
X89338094Y-48142319D02*
X89338094Y-47142319D01*
X89338094Y-47142319D02*
X89099999Y-47142319D01*
X89099999Y-47142319D02*
X88957142Y-47189938D01*
X88957142Y-47189938D02*
X88861904Y-47285176D01*
X88861904Y-47285176D02*
X88814285Y-47380414D01*
X88814285Y-47380414D02*
X88766666Y-47570890D01*
X88766666Y-47570890D02*
X88766666Y-47713747D01*
X88766666Y-47713747D02*
X88814285Y-47904223D01*
X88814285Y-47904223D02*
X88861904Y-47999461D01*
X88861904Y-47999461D02*
X88957142Y-48094700D01*
X88957142Y-48094700D02*
X89099999Y-48142319D01*
X89099999Y-48142319D02*
X89338094Y-48142319D01*
X87766666Y-48142319D02*
X88099999Y-47666128D01*
X88338094Y-48142319D02*
X88338094Y-47142319D01*
X88338094Y-47142319D02*
X87957142Y-47142319D01*
X87957142Y-47142319D02*
X87861904Y-47189938D01*
X87861904Y-47189938D02*
X87814285Y-47237557D01*
X87814285Y-47237557D02*
X87766666Y-47332795D01*
X87766666Y-47332795D02*
X87766666Y-47475652D01*
X87766666Y-47475652D02*
X87814285Y-47570890D01*
X87814285Y-47570890D02*
X87861904Y-47618509D01*
X87861904Y-47618509D02*
X87957142Y-47666128D01*
X87957142Y-47666128D02*
X88338094Y-47666128D01*
X87385713Y-47237557D02*
X87338094Y-47189938D01*
X87338094Y-47189938D02*
X87242856Y-47142319D01*
X87242856Y-47142319D02*
X87004761Y-47142319D01*
X87004761Y-47142319D02*
X86909523Y-47189938D01*
X86909523Y-47189938D02*
X86861904Y-47237557D01*
X86861904Y-47237557D02*
X86814285Y-47332795D01*
X86814285Y-47332795D02*
X86814285Y-47428033D01*
X86814285Y-47428033D02*
X86861904Y-47570890D01*
X86861904Y-47570890D02*
X87433332Y-48142319D01*
X87433332Y-48142319D02*
X86814285Y-48142319D01*
X92838094Y-50642319D02*
X92838094Y-49642319D01*
X92838094Y-49642319D02*
X92599999Y-49642319D01*
X92599999Y-49642319D02*
X92457142Y-49689938D01*
X92457142Y-49689938D02*
X92361904Y-49785176D01*
X92361904Y-49785176D02*
X92314285Y-49880414D01*
X92314285Y-49880414D02*
X92266666Y-50070890D01*
X92266666Y-50070890D02*
X92266666Y-50213747D01*
X92266666Y-50213747D02*
X92314285Y-50404223D01*
X92314285Y-50404223D02*
X92361904Y-50499461D01*
X92361904Y-50499461D02*
X92457142Y-50594700D01*
X92457142Y-50594700D02*
X92599999Y-50642319D01*
X92599999Y-50642319D02*
X92838094Y-50642319D01*
X91266666Y-50547080D02*
X91314285Y-50594700D01*
X91314285Y-50594700D02*
X91457142Y-50642319D01*
X91457142Y-50642319D02*
X91552380Y-50642319D01*
X91552380Y-50642319D02*
X91695237Y-50594700D01*
X91695237Y-50594700D02*
X91790475Y-50499461D01*
X91790475Y-50499461D02*
X91838094Y-50404223D01*
X91838094Y-50404223D02*
X91885713Y-50213747D01*
X91885713Y-50213747D02*
X91885713Y-50070890D01*
X91885713Y-50070890D02*
X91838094Y-49880414D01*
X91838094Y-49880414D02*
X91790475Y-49785176D01*
X91790475Y-49785176D02*
X91695237Y-49689938D01*
X91695237Y-49689938D02*
X91552380Y-49642319D01*
X91552380Y-49642319D02*
X91457142Y-49642319D01*
X91457142Y-49642319D02*
X91314285Y-49689938D01*
X91314285Y-49689938D02*
X91266666Y-49737557D01*
X90933332Y-49642319D02*
X90314285Y-49642319D01*
X90314285Y-49642319D02*
X90647618Y-50023271D01*
X90647618Y-50023271D02*
X90504761Y-50023271D01*
X90504761Y-50023271D02*
X90409523Y-50070890D01*
X90409523Y-50070890D02*
X90361904Y-50118509D01*
X90361904Y-50118509D02*
X90314285Y-50213747D01*
X90314285Y-50213747D02*
X90314285Y-50451842D01*
X90314285Y-50451842D02*
X90361904Y-50547080D01*
X90361904Y-50547080D02*
X90409523Y-50594700D01*
X90409523Y-50594700D02*
X90504761Y-50642319D01*
X90504761Y-50642319D02*
X90790475Y-50642319D01*
X90790475Y-50642319D02*
X90885713Y-50594700D01*
X90885713Y-50594700D02*
X90933332Y-50547080D01*
X79054819Y-47199405D02*
X78054819Y-47199405D01*
X78054819Y-47199405D02*
X78054819Y-47437500D01*
X78054819Y-47437500D02*
X78102438Y-47580357D01*
X78102438Y-47580357D02*
X78197676Y-47675595D01*
X78197676Y-47675595D02*
X78292914Y-47723214D01*
X78292914Y-47723214D02*
X78483390Y-47770833D01*
X78483390Y-47770833D02*
X78626247Y-47770833D01*
X78626247Y-47770833D02*
X78816723Y-47723214D01*
X78816723Y-47723214D02*
X78911961Y-47675595D01*
X78911961Y-47675595D02*
X79007200Y-47580357D01*
X79007200Y-47580357D02*
X79054819Y-47437500D01*
X79054819Y-47437500D02*
X79054819Y-47199405D01*
X78959580Y-48770833D02*
X79007200Y-48723214D01*
X79007200Y-48723214D02*
X79054819Y-48580357D01*
X79054819Y-48580357D02*
X79054819Y-48485119D01*
X79054819Y-48485119D02*
X79007200Y-48342262D01*
X79007200Y-48342262D02*
X78911961Y-48247024D01*
X78911961Y-48247024D02*
X78816723Y-48199405D01*
X78816723Y-48199405D02*
X78626247Y-48151786D01*
X78626247Y-48151786D02*
X78483390Y-48151786D01*
X78483390Y-48151786D02*
X78292914Y-48199405D01*
X78292914Y-48199405D02*
X78197676Y-48247024D01*
X78197676Y-48247024D02*
X78102438Y-48342262D01*
X78102438Y-48342262D02*
X78054819Y-48485119D01*
X78054819Y-48485119D02*
X78054819Y-48580357D01*
X78054819Y-48580357D02*
X78102438Y-48723214D01*
X78102438Y-48723214D02*
X78150057Y-48770833D01*
X78054819Y-49104167D02*
X78054819Y-49770833D01*
X78054819Y-49770833D02*
X79054819Y-49342262D01*
X83134819Y-46174405D02*
X82134819Y-46174405D01*
X82134819Y-46174405D02*
X82134819Y-46412500D01*
X82134819Y-46412500D02*
X82182438Y-46555357D01*
X82182438Y-46555357D02*
X82277676Y-46650595D01*
X82277676Y-46650595D02*
X82372914Y-46698214D01*
X82372914Y-46698214D02*
X82563390Y-46745833D01*
X82563390Y-46745833D02*
X82706247Y-46745833D01*
X82706247Y-46745833D02*
X82896723Y-46698214D01*
X82896723Y-46698214D02*
X82991961Y-46650595D01*
X82991961Y-46650595D02*
X83087200Y-46555357D01*
X83087200Y-46555357D02*
X83134819Y-46412500D01*
X83134819Y-46412500D02*
X83134819Y-46174405D01*
X83134819Y-47745833D02*
X82658628Y-47412500D01*
X83134819Y-47174405D02*
X82134819Y-47174405D01*
X82134819Y-47174405D02*
X82134819Y-47555357D01*
X82134819Y-47555357D02*
X82182438Y-47650595D01*
X82182438Y-47650595D02*
X82230057Y-47698214D01*
X82230057Y-47698214D02*
X82325295Y-47745833D01*
X82325295Y-47745833D02*
X82468152Y-47745833D01*
X82468152Y-47745833D02*
X82563390Y-47698214D01*
X82563390Y-47698214D02*
X82611009Y-47650595D01*
X82611009Y-47650595D02*
X82658628Y-47555357D01*
X82658628Y-47555357D02*
X82658628Y-47174405D01*
X82134819Y-48079167D02*
X82134819Y-48698214D01*
X82134819Y-48698214D02*
X82515771Y-48364881D01*
X82515771Y-48364881D02*
X82515771Y-48507738D01*
X82515771Y-48507738D02*
X82563390Y-48602976D01*
X82563390Y-48602976D02*
X82611009Y-48650595D01*
X82611009Y-48650595D02*
X82706247Y-48698214D01*
X82706247Y-48698214D02*
X82944342Y-48698214D01*
X82944342Y-48698214D02*
X83039580Y-48650595D01*
X83039580Y-48650595D02*
X83087200Y-48602976D01*
X83087200Y-48602976D02*
X83134819Y-48507738D01*
X83134819Y-48507738D02*
X83134819Y-48222024D01*
X83134819Y-48222024D02*
X83087200Y-48126786D01*
X83087200Y-48126786D02*
X83039580Y-48079167D01*
X92750594Y-59822319D02*
X92750594Y-58822319D01*
X92750594Y-58822319D02*
X92512499Y-58822319D01*
X92512499Y-58822319D02*
X92369642Y-58869938D01*
X92369642Y-58869938D02*
X92274404Y-58965176D01*
X92274404Y-58965176D02*
X92226785Y-59060414D01*
X92226785Y-59060414D02*
X92179166Y-59250890D01*
X92179166Y-59250890D02*
X92179166Y-59393747D01*
X92179166Y-59393747D02*
X92226785Y-59584223D01*
X92226785Y-59584223D02*
X92274404Y-59679461D01*
X92274404Y-59679461D02*
X92369642Y-59774700D01*
X92369642Y-59774700D02*
X92512499Y-59822319D01*
X92512499Y-59822319D02*
X92750594Y-59822319D01*
X91179166Y-59822319D02*
X91512499Y-59346128D01*
X91750594Y-59822319D02*
X91750594Y-58822319D01*
X91750594Y-58822319D02*
X91369642Y-58822319D01*
X91369642Y-58822319D02*
X91274404Y-58869938D01*
X91274404Y-58869938D02*
X91226785Y-58917557D01*
X91226785Y-58917557D02*
X91179166Y-59012795D01*
X91179166Y-59012795D02*
X91179166Y-59155652D01*
X91179166Y-59155652D02*
X91226785Y-59250890D01*
X91226785Y-59250890D02*
X91274404Y-59298509D01*
X91274404Y-59298509D02*
X91369642Y-59346128D01*
X91369642Y-59346128D02*
X91750594Y-59346128D01*
X90322023Y-59155652D02*
X90322023Y-59822319D01*
X90560118Y-58774700D02*
X90798213Y-59488985D01*
X90798213Y-59488985D02*
X90179166Y-59488985D01*
X82004761Y-56798509D02*
X81861904Y-56846128D01*
X81861904Y-56846128D02*
X81814285Y-56893747D01*
X81814285Y-56893747D02*
X81766666Y-56988985D01*
X81766666Y-56988985D02*
X81766666Y-57131842D01*
X81766666Y-57131842D02*
X81814285Y-57227080D01*
X81814285Y-57227080D02*
X81861904Y-57274700D01*
X81861904Y-57274700D02*
X81957142Y-57322319D01*
X81957142Y-57322319D02*
X82338094Y-57322319D01*
X82338094Y-57322319D02*
X82338094Y-56322319D01*
X82338094Y-56322319D02*
X82004761Y-56322319D01*
X82004761Y-56322319D02*
X81909523Y-56369938D01*
X81909523Y-56369938D02*
X81861904Y-56417557D01*
X81861904Y-56417557D02*
X81814285Y-56512795D01*
X81814285Y-56512795D02*
X81814285Y-56608033D01*
X81814285Y-56608033D02*
X81861904Y-56703271D01*
X81861904Y-56703271D02*
X81909523Y-56750890D01*
X81909523Y-56750890D02*
X82004761Y-56798509D01*
X82004761Y-56798509D02*
X82338094Y-56798509D01*
X80766666Y-57227080D02*
X80814285Y-57274700D01*
X80814285Y-57274700D02*
X80957142Y-57322319D01*
X80957142Y-57322319D02*
X81052380Y-57322319D01*
X81052380Y-57322319D02*
X81195237Y-57274700D01*
X81195237Y-57274700D02*
X81290475Y-57179461D01*
X81290475Y-57179461D02*
X81338094Y-57084223D01*
X81338094Y-57084223D02*
X81385713Y-56893747D01*
X81385713Y-56893747D02*
X81385713Y-56750890D01*
X81385713Y-56750890D02*
X81338094Y-56560414D01*
X81338094Y-56560414D02*
X81290475Y-56465176D01*
X81290475Y-56465176D02*
X81195237Y-56369938D01*
X81195237Y-56369938D02*
X81052380Y-56322319D01*
X81052380Y-56322319D02*
X80957142Y-56322319D01*
X80957142Y-56322319D02*
X80814285Y-56369938D01*
X80814285Y-56369938D02*
X80766666Y-56417557D01*
X79766666Y-57322319D02*
X80099999Y-56846128D01*
X80338094Y-57322319D02*
X80338094Y-56322319D01*
X80338094Y-56322319D02*
X79957142Y-56322319D01*
X79957142Y-56322319D02*
X79861904Y-56369938D01*
X79861904Y-56369938D02*
X79814285Y-56417557D01*
X79814285Y-56417557D02*
X79766666Y-56512795D01*
X79766666Y-56512795D02*
X79766666Y-56655652D01*
X79766666Y-56655652D02*
X79814285Y-56750890D01*
X79814285Y-56750890D02*
X79861904Y-56798509D01*
X79861904Y-56798509D02*
X79957142Y-56846128D01*
X79957142Y-56846128D02*
X80338094Y-56846128D01*
X78814285Y-57322319D02*
X79385713Y-57322319D01*
X79099999Y-57322319D02*
X79099999Y-56322319D01*
X79099999Y-56322319D02*
X79195237Y-56465176D01*
X79195237Y-56465176D02*
X79290475Y-56560414D01*
X79290475Y-56560414D02*
X79385713Y-56608033D01*
X98054819Y-46449405D02*
X97054819Y-46449405D01*
X97054819Y-46449405D02*
X97054819Y-46687500D01*
X97054819Y-46687500D02*
X97102438Y-46830357D01*
X97102438Y-46830357D02*
X97197676Y-46925595D01*
X97197676Y-46925595D02*
X97292914Y-46973214D01*
X97292914Y-46973214D02*
X97483390Y-47020833D01*
X97483390Y-47020833D02*
X97626247Y-47020833D01*
X97626247Y-47020833D02*
X97816723Y-46973214D01*
X97816723Y-46973214D02*
X97911961Y-46925595D01*
X97911961Y-46925595D02*
X98007200Y-46830357D01*
X98007200Y-46830357D02*
X98054819Y-46687500D01*
X98054819Y-46687500D02*
X98054819Y-46449405D01*
X97959580Y-48020833D02*
X98007200Y-47973214D01*
X98007200Y-47973214D02*
X98054819Y-47830357D01*
X98054819Y-47830357D02*
X98054819Y-47735119D01*
X98054819Y-47735119D02*
X98007200Y-47592262D01*
X98007200Y-47592262D02*
X97911961Y-47497024D01*
X97911961Y-47497024D02*
X97816723Y-47449405D01*
X97816723Y-47449405D02*
X97626247Y-47401786D01*
X97626247Y-47401786D02*
X97483390Y-47401786D01*
X97483390Y-47401786D02*
X97292914Y-47449405D01*
X97292914Y-47449405D02*
X97197676Y-47497024D01*
X97197676Y-47497024D02*
X97102438Y-47592262D01*
X97102438Y-47592262D02*
X97054819Y-47735119D01*
X97054819Y-47735119D02*
X97054819Y-47830357D01*
X97054819Y-47830357D02*
X97102438Y-47973214D01*
X97102438Y-47973214D02*
X97150057Y-48020833D01*
X97054819Y-48925595D02*
X97054819Y-48449405D01*
X97054819Y-48449405D02*
X97531009Y-48401786D01*
X97531009Y-48401786D02*
X97483390Y-48449405D01*
X97483390Y-48449405D02*
X97435771Y-48544643D01*
X97435771Y-48544643D02*
X97435771Y-48782738D01*
X97435771Y-48782738D02*
X97483390Y-48877976D01*
X97483390Y-48877976D02*
X97531009Y-48925595D01*
X97531009Y-48925595D02*
X97626247Y-48973214D01*
X97626247Y-48973214D02*
X97864342Y-48973214D01*
X97864342Y-48973214D02*
X97959580Y-48925595D01*
X97959580Y-48925595D02*
X98007200Y-48877976D01*
X98007200Y-48877976D02*
X98054819Y-48782738D01*
X98054819Y-48782738D02*
X98054819Y-48544643D01*
X98054819Y-48544643D02*
X98007200Y-48449405D01*
X98007200Y-48449405D02*
X97959580Y-48401786D01*
X98224819Y-59699405D02*
X97224819Y-59699405D01*
X97224819Y-59699405D02*
X97224819Y-59937500D01*
X97224819Y-59937500D02*
X97272438Y-60080357D01*
X97272438Y-60080357D02*
X97367676Y-60175595D01*
X97367676Y-60175595D02*
X97462914Y-60223214D01*
X97462914Y-60223214D02*
X97653390Y-60270833D01*
X97653390Y-60270833D02*
X97796247Y-60270833D01*
X97796247Y-60270833D02*
X97986723Y-60223214D01*
X97986723Y-60223214D02*
X98081961Y-60175595D01*
X98081961Y-60175595D02*
X98177200Y-60080357D01*
X98177200Y-60080357D02*
X98224819Y-59937500D01*
X98224819Y-59937500D02*
X98224819Y-59699405D01*
X97701009Y-61032738D02*
X97748628Y-61175595D01*
X97748628Y-61175595D02*
X97796247Y-61223214D01*
X97796247Y-61223214D02*
X97891485Y-61270833D01*
X97891485Y-61270833D02*
X98034342Y-61270833D01*
X98034342Y-61270833D02*
X98129580Y-61223214D01*
X98129580Y-61223214D02*
X98177200Y-61175595D01*
X98177200Y-61175595D02*
X98224819Y-61080357D01*
X98224819Y-61080357D02*
X98224819Y-60699405D01*
X98224819Y-60699405D02*
X97224819Y-60699405D01*
X97224819Y-60699405D02*
X97224819Y-61032738D01*
X97224819Y-61032738D02*
X97272438Y-61127976D01*
X97272438Y-61127976D02*
X97320057Y-61175595D01*
X97320057Y-61175595D02*
X97415295Y-61223214D01*
X97415295Y-61223214D02*
X97510533Y-61223214D01*
X97510533Y-61223214D02*
X97605771Y-61175595D01*
X97605771Y-61175595D02*
X97653390Y-61127976D01*
X97653390Y-61127976D02*
X97701009Y-61032738D01*
X97701009Y-61032738D02*
X97701009Y-60699405D01*
X97320057Y-61651786D02*
X97272438Y-61699405D01*
X97272438Y-61699405D02*
X97224819Y-61794643D01*
X97224819Y-61794643D02*
X97224819Y-62032738D01*
X97224819Y-62032738D02*
X97272438Y-62127976D01*
X97272438Y-62127976D02*
X97320057Y-62175595D01*
X97320057Y-62175595D02*
X97415295Y-62223214D01*
X97415295Y-62223214D02*
X97510533Y-62223214D01*
X97510533Y-62223214D02*
X97653390Y-62175595D01*
X97653390Y-62175595D02*
X98224819Y-61604167D01*
X98224819Y-61604167D02*
X98224819Y-62223214D01*
X86281009Y-52895238D02*
X86328628Y-53038095D01*
X86328628Y-53038095D02*
X86376247Y-53085714D01*
X86376247Y-53085714D02*
X86471485Y-53133333D01*
X86471485Y-53133333D02*
X86614342Y-53133333D01*
X86614342Y-53133333D02*
X86709580Y-53085714D01*
X86709580Y-53085714D02*
X86757200Y-53038095D01*
X86757200Y-53038095D02*
X86804819Y-52942857D01*
X86804819Y-52942857D02*
X86804819Y-52561905D01*
X86804819Y-52561905D02*
X85804819Y-52561905D01*
X85804819Y-52561905D02*
X85804819Y-52895238D01*
X85804819Y-52895238D02*
X85852438Y-52990476D01*
X85852438Y-52990476D02*
X85900057Y-53038095D01*
X85900057Y-53038095D02*
X85995295Y-53085714D01*
X85995295Y-53085714D02*
X86090533Y-53085714D01*
X86090533Y-53085714D02*
X86185771Y-53038095D01*
X86185771Y-53038095D02*
X86233390Y-52990476D01*
X86233390Y-52990476D02*
X86281009Y-52895238D01*
X86281009Y-52895238D02*
X86281009Y-52561905D01*
X86709580Y-54133333D02*
X86757200Y-54085714D01*
X86757200Y-54085714D02*
X86804819Y-53942857D01*
X86804819Y-53942857D02*
X86804819Y-53847619D01*
X86804819Y-53847619D02*
X86757200Y-53704762D01*
X86757200Y-53704762D02*
X86661961Y-53609524D01*
X86661961Y-53609524D02*
X86566723Y-53561905D01*
X86566723Y-53561905D02*
X86376247Y-53514286D01*
X86376247Y-53514286D02*
X86233390Y-53514286D01*
X86233390Y-53514286D02*
X86042914Y-53561905D01*
X86042914Y-53561905D02*
X85947676Y-53609524D01*
X85947676Y-53609524D02*
X85852438Y-53704762D01*
X85852438Y-53704762D02*
X85804819Y-53847619D01*
X85804819Y-53847619D02*
X85804819Y-53942857D01*
X85804819Y-53942857D02*
X85852438Y-54085714D01*
X85852438Y-54085714D02*
X85900057Y-54133333D01*
X86709580Y-55133333D02*
X86757200Y-55085714D01*
X86757200Y-55085714D02*
X86804819Y-54942857D01*
X86804819Y-54942857D02*
X86804819Y-54847619D01*
X86804819Y-54847619D02*
X86757200Y-54704762D01*
X86757200Y-54704762D02*
X86661961Y-54609524D01*
X86661961Y-54609524D02*
X86566723Y-54561905D01*
X86566723Y-54561905D02*
X86376247Y-54514286D01*
X86376247Y-54514286D02*
X86233390Y-54514286D01*
X86233390Y-54514286D02*
X86042914Y-54561905D01*
X86042914Y-54561905D02*
X85947676Y-54609524D01*
X85947676Y-54609524D02*
X85852438Y-54704762D01*
X85852438Y-54704762D02*
X85804819Y-54847619D01*
X85804819Y-54847619D02*
X85804819Y-54942857D01*
X85804819Y-54942857D02*
X85852438Y-55085714D01*
X85852438Y-55085714D02*
X85900057Y-55133333D01*
X86804819Y-56085714D02*
X86804819Y-55514286D01*
X86804819Y-55800000D02*
X85804819Y-55800000D01*
X85804819Y-55800000D02*
X85947676Y-55704762D01*
X85947676Y-55704762D02*
X86042914Y-55609524D01*
X86042914Y-55609524D02*
X86090533Y-55514286D01*
X78861904Y-60642319D02*
X78861904Y-59642319D01*
X78861904Y-59642319D02*
X78623809Y-59642319D01*
X78623809Y-59642319D02*
X78480952Y-59689938D01*
X78480952Y-59689938D02*
X78385714Y-59785176D01*
X78385714Y-59785176D02*
X78338095Y-59880414D01*
X78338095Y-59880414D02*
X78290476Y-60070890D01*
X78290476Y-60070890D02*
X78290476Y-60213747D01*
X78290476Y-60213747D02*
X78338095Y-60404223D01*
X78338095Y-60404223D02*
X78385714Y-60499461D01*
X78385714Y-60499461D02*
X78480952Y-60594700D01*
X78480952Y-60594700D02*
X78623809Y-60642319D01*
X78623809Y-60642319D02*
X78861904Y-60642319D01*
X77195238Y-60737557D02*
X77290476Y-60689938D01*
X77290476Y-60689938D02*
X77385714Y-60594700D01*
X77385714Y-60594700D02*
X77528571Y-60451842D01*
X77528571Y-60451842D02*
X77623809Y-60404223D01*
X77623809Y-60404223D02*
X77719047Y-60404223D01*
X77671428Y-60642319D02*
X77766666Y-60594700D01*
X77766666Y-60594700D02*
X77861904Y-60499461D01*
X77861904Y-60499461D02*
X77909523Y-60308985D01*
X77909523Y-60308985D02*
X77909523Y-59975652D01*
X77909523Y-59975652D02*
X77861904Y-59785176D01*
X77861904Y-59785176D02*
X77766666Y-59689938D01*
X77766666Y-59689938D02*
X77671428Y-59642319D01*
X77671428Y-59642319D02*
X77480952Y-59642319D01*
X77480952Y-59642319D02*
X77385714Y-59689938D01*
X77385714Y-59689938D02*
X77290476Y-59785176D01*
X77290476Y-59785176D02*
X77242857Y-59975652D01*
X77242857Y-59975652D02*
X77242857Y-60308985D01*
X77242857Y-60308985D02*
X77290476Y-60499461D01*
X77290476Y-60499461D02*
X77385714Y-60594700D01*
X77385714Y-60594700D02*
X77480952Y-60642319D01*
X77480952Y-60642319D02*
X77671428Y-60642319D01*
X76290476Y-60642319D02*
X76861904Y-60642319D01*
X76576190Y-60642319D02*
X76576190Y-59642319D01*
X76576190Y-59642319D02*
X76671428Y-59785176D01*
X76671428Y-59785176D02*
X76766666Y-59880414D01*
X76766666Y-59880414D02*
X76861904Y-59928033D01*
X79359523Y-50618509D02*
X79216666Y-50666128D01*
X79216666Y-50666128D02*
X79169047Y-50713747D01*
X79169047Y-50713747D02*
X79121428Y-50808985D01*
X79121428Y-50808985D02*
X79121428Y-50951842D01*
X79121428Y-50951842D02*
X79169047Y-51047080D01*
X79169047Y-51047080D02*
X79216666Y-51094700D01*
X79216666Y-51094700D02*
X79311904Y-51142319D01*
X79311904Y-51142319D02*
X79692856Y-51142319D01*
X79692856Y-51142319D02*
X79692856Y-50142319D01*
X79692856Y-50142319D02*
X79359523Y-50142319D01*
X79359523Y-50142319D02*
X79264285Y-50189938D01*
X79264285Y-50189938D02*
X79216666Y-50237557D01*
X79216666Y-50237557D02*
X79169047Y-50332795D01*
X79169047Y-50332795D02*
X79169047Y-50428033D01*
X79169047Y-50428033D02*
X79216666Y-50523271D01*
X79216666Y-50523271D02*
X79264285Y-50570890D01*
X79264285Y-50570890D02*
X79359523Y-50618509D01*
X79359523Y-50618509D02*
X79692856Y-50618509D01*
X78121428Y-51047080D02*
X78169047Y-51094700D01*
X78169047Y-51094700D02*
X78311904Y-51142319D01*
X78311904Y-51142319D02*
X78407142Y-51142319D01*
X78407142Y-51142319D02*
X78549999Y-51094700D01*
X78549999Y-51094700D02*
X78645237Y-50999461D01*
X78645237Y-50999461D02*
X78692856Y-50904223D01*
X78692856Y-50904223D02*
X78740475Y-50713747D01*
X78740475Y-50713747D02*
X78740475Y-50570890D01*
X78740475Y-50570890D02*
X78692856Y-50380414D01*
X78692856Y-50380414D02*
X78645237Y-50285176D01*
X78645237Y-50285176D02*
X78549999Y-50189938D01*
X78549999Y-50189938D02*
X78407142Y-50142319D01*
X78407142Y-50142319D02*
X78311904Y-50142319D01*
X78311904Y-50142319D02*
X78169047Y-50189938D01*
X78169047Y-50189938D02*
X78121428Y-50237557D01*
X77216666Y-51142319D02*
X77692856Y-51142319D01*
X77692856Y-51142319D02*
X77692856Y-50142319D01*
X76359523Y-51142319D02*
X76930951Y-51142319D01*
X76645237Y-51142319D02*
X76645237Y-50142319D01*
X76645237Y-50142319D02*
X76740475Y-50285176D01*
X76740475Y-50285176D02*
X76835713Y-50380414D01*
X76835713Y-50380414D02*
X76930951Y-50428033D01*
X90804819Y-54675595D02*
X89804819Y-54675595D01*
X89804819Y-54675595D02*
X89804819Y-54913690D01*
X89804819Y-54913690D02*
X89852438Y-55056547D01*
X89852438Y-55056547D02*
X89947676Y-55151785D01*
X89947676Y-55151785D02*
X90042914Y-55199404D01*
X90042914Y-55199404D02*
X90233390Y-55247023D01*
X90233390Y-55247023D02*
X90376247Y-55247023D01*
X90376247Y-55247023D02*
X90566723Y-55199404D01*
X90566723Y-55199404D02*
X90661961Y-55151785D01*
X90661961Y-55151785D02*
X90757200Y-55056547D01*
X90757200Y-55056547D02*
X90804819Y-54913690D01*
X90804819Y-54913690D02*
X90804819Y-54675595D01*
X90900057Y-56342261D02*
X90852438Y-56247023D01*
X90852438Y-56247023D02*
X90757200Y-56151785D01*
X90757200Y-56151785D02*
X90614342Y-56008928D01*
X90614342Y-56008928D02*
X90566723Y-55913690D01*
X90566723Y-55913690D02*
X90566723Y-55818452D01*
X90804819Y-55866071D02*
X90757200Y-55770833D01*
X90757200Y-55770833D02*
X90661961Y-55675595D01*
X90661961Y-55675595D02*
X90471485Y-55627976D01*
X90471485Y-55627976D02*
X90138152Y-55627976D01*
X90138152Y-55627976D02*
X89947676Y-55675595D01*
X89947676Y-55675595D02*
X89852438Y-55770833D01*
X89852438Y-55770833D02*
X89804819Y-55866071D01*
X89804819Y-55866071D02*
X89804819Y-56056547D01*
X89804819Y-56056547D02*
X89852438Y-56151785D01*
X89852438Y-56151785D02*
X89947676Y-56247023D01*
X89947676Y-56247023D02*
X90138152Y-56294642D01*
X90138152Y-56294642D02*
X90471485Y-56294642D01*
X90471485Y-56294642D02*
X90661961Y-56247023D01*
X90661961Y-56247023D02*
X90757200Y-56151785D01*
X90757200Y-56151785D02*
X90804819Y-56056547D01*
X90804819Y-56056547D02*
X90804819Y-55866071D01*
X89900057Y-56675595D02*
X89852438Y-56723214D01*
X89852438Y-56723214D02*
X89804819Y-56818452D01*
X89804819Y-56818452D02*
X89804819Y-57056547D01*
X89804819Y-57056547D02*
X89852438Y-57151785D01*
X89852438Y-57151785D02*
X89900057Y-57199404D01*
X89900057Y-57199404D02*
X89995295Y-57247023D01*
X89995295Y-57247023D02*
X90090533Y-57247023D01*
X90090533Y-57247023D02*
X90233390Y-57199404D01*
X90233390Y-57199404D02*
X90804819Y-56627976D01*
X90804819Y-56627976D02*
X90804819Y-57247023D01*
X85504761Y-58618509D02*
X85361904Y-58666128D01*
X85361904Y-58666128D02*
X85314285Y-58713747D01*
X85314285Y-58713747D02*
X85266666Y-58808985D01*
X85266666Y-58808985D02*
X85266666Y-58951842D01*
X85266666Y-58951842D02*
X85314285Y-59047080D01*
X85314285Y-59047080D02*
X85361904Y-59094700D01*
X85361904Y-59094700D02*
X85457142Y-59142319D01*
X85457142Y-59142319D02*
X85838094Y-59142319D01*
X85838094Y-59142319D02*
X85838094Y-58142319D01*
X85838094Y-58142319D02*
X85504761Y-58142319D01*
X85504761Y-58142319D02*
X85409523Y-58189938D01*
X85409523Y-58189938D02*
X85361904Y-58237557D01*
X85361904Y-58237557D02*
X85314285Y-58332795D01*
X85314285Y-58332795D02*
X85314285Y-58428033D01*
X85314285Y-58428033D02*
X85361904Y-58523271D01*
X85361904Y-58523271D02*
X85409523Y-58570890D01*
X85409523Y-58570890D02*
X85504761Y-58618509D01*
X85504761Y-58618509D02*
X85838094Y-58618509D01*
X84266666Y-59047080D02*
X84314285Y-59094700D01*
X84314285Y-59094700D02*
X84457142Y-59142319D01*
X84457142Y-59142319D02*
X84552380Y-59142319D01*
X84552380Y-59142319D02*
X84695237Y-59094700D01*
X84695237Y-59094700D02*
X84790475Y-58999461D01*
X84790475Y-58999461D02*
X84838094Y-58904223D01*
X84838094Y-58904223D02*
X84885713Y-58713747D01*
X84885713Y-58713747D02*
X84885713Y-58570890D01*
X84885713Y-58570890D02*
X84838094Y-58380414D01*
X84838094Y-58380414D02*
X84790475Y-58285176D01*
X84790475Y-58285176D02*
X84695237Y-58189938D01*
X84695237Y-58189938D02*
X84552380Y-58142319D01*
X84552380Y-58142319D02*
X84457142Y-58142319D01*
X84457142Y-58142319D02*
X84314285Y-58189938D01*
X84314285Y-58189938D02*
X84266666Y-58237557D01*
X83266666Y-59142319D02*
X83599999Y-58666128D01*
X83838094Y-59142319D02*
X83838094Y-58142319D01*
X83838094Y-58142319D02*
X83457142Y-58142319D01*
X83457142Y-58142319D02*
X83361904Y-58189938D01*
X83361904Y-58189938D02*
X83314285Y-58237557D01*
X83314285Y-58237557D02*
X83266666Y-58332795D01*
X83266666Y-58332795D02*
X83266666Y-58475652D01*
X83266666Y-58475652D02*
X83314285Y-58570890D01*
X83314285Y-58570890D02*
X83361904Y-58618509D01*
X83361904Y-58618509D02*
X83457142Y-58666128D01*
X83457142Y-58666128D02*
X83838094Y-58666128D01*
X82885713Y-58237557D02*
X82838094Y-58189938D01*
X82838094Y-58189938D02*
X82742856Y-58142319D01*
X82742856Y-58142319D02*
X82504761Y-58142319D01*
X82504761Y-58142319D02*
X82409523Y-58189938D01*
X82409523Y-58189938D02*
X82361904Y-58237557D01*
X82361904Y-58237557D02*
X82314285Y-58332795D01*
X82314285Y-58332795D02*
X82314285Y-58428033D01*
X82314285Y-58428033D02*
X82361904Y-58570890D01*
X82361904Y-58570890D02*
X82933332Y-59142319D01*
X82933332Y-59142319D02*
X82314285Y-59142319D01*
X82867261Y-49438509D02*
X82724404Y-49486128D01*
X82724404Y-49486128D02*
X82676785Y-49533747D01*
X82676785Y-49533747D02*
X82629166Y-49628985D01*
X82629166Y-49628985D02*
X82629166Y-49771842D01*
X82629166Y-49771842D02*
X82676785Y-49867080D01*
X82676785Y-49867080D02*
X82724404Y-49914700D01*
X82724404Y-49914700D02*
X82819642Y-49962319D01*
X82819642Y-49962319D02*
X83200594Y-49962319D01*
X83200594Y-49962319D02*
X83200594Y-48962319D01*
X83200594Y-48962319D02*
X82867261Y-48962319D01*
X82867261Y-48962319D02*
X82772023Y-49009938D01*
X82772023Y-49009938D02*
X82724404Y-49057557D01*
X82724404Y-49057557D02*
X82676785Y-49152795D01*
X82676785Y-49152795D02*
X82676785Y-49248033D01*
X82676785Y-49248033D02*
X82724404Y-49343271D01*
X82724404Y-49343271D02*
X82772023Y-49390890D01*
X82772023Y-49390890D02*
X82867261Y-49438509D01*
X82867261Y-49438509D02*
X83200594Y-49438509D01*
X81629166Y-49867080D02*
X81676785Y-49914700D01*
X81676785Y-49914700D02*
X81819642Y-49962319D01*
X81819642Y-49962319D02*
X81914880Y-49962319D01*
X81914880Y-49962319D02*
X82057737Y-49914700D01*
X82057737Y-49914700D02*
X82152975Y-49819461D01*
X82152975Y-49819461D02*
X82200594Y-49724223D01*
X82200594Y-49724223D02*
X82248213Y-49533747D01*
X82248213Y-49533747D02*
X82248213Y-49390890D01*
X82248213Y-49390890D02*
X82200594Y-49200414D01*
X82200594Y-49200414D02*
X82152975Y-49105176D01*
X82152975Y-49105176D02*
X82057737Y-49009938D01*
X82057737Y-49009938D02*
X81914880Y-48962319D01*
X81914880Y-48962319D02*
X81819642Y-48962319D01*
X81819642Y-48962319D02*
X81676785Y-49009938D01*
X81676785Y-49009938D02*
X81629166Y-49057557D01*
X80629166Y-49867080D02*
X80676785Y-49914700D01*
X80676785Y-49914700D02*
X80819642Y-49962319D01*
X80819642Y-49962319D02*
X80914880Y-49962319D01*
X80914880Y-49962319D02*
X81057737Y-49914700D01*
X81057737Y-49914700D02*
X81152975Y-49819461D01*
X81152975Y-49819461D02*
X81200594Y-49724223D01*
X81200594Y-49724223D02*
X81248213Y-49533747D01*
X81248213Y-49533747D02*
X81248213Y-49390890D01*
X81248213Y-49390890D02*
X81200594Y-49200414D01*
X81200594Y-49200414D02*
X81152975Y-49105176D01*
X81152975Y-49105176D02*
X81057737Y-49009938D01*
X81057737Y-49009938D02*
X80914880Y-48962319D01*
X80914880Y-48962319D02*
X80819642Y-48962319D01*
X80819642Y-48962319D02*
X80676785Y-49009938D01*
X80676785Y-49009938D02*
X80629166Y-49057557D01*
X80248213Y-49057557D02*
X80200594Y-49009938D01*
X80200594Y-49009938D02*
X80105356Y-48962319D01*
X80105356Y-48962319D02*
X79867261Y-48962319D01*
X79867261Y-48962319D02*
X79772023Y-49009938D01*
X79772023Y-49009938D02*
X79724404Y-49057557D01*
X79724404Y-49057557D02*
X79676785Y-49152795D01*
X79676785Y-49152795D02*
X79676785Y-49248033D01*
X79676785Y-49248033D02*
X79724404Y-49390890D01*
X79724404Y-49390890D02*
X80295832Y-49962319D01*
X80295832Y-49962319D02*
X79676785Y-49962319D01*
X89338094Y-52392319D02*
X89338094Y-51392319D01*
X89338094Y-51392319D02*
X89099999Y-51392319D01*
X89099999Y-51392319D02*
X88957142Y-51439938D01*
X88957142Y-51439938D02*
X88861904Y-51535176D01*
X88861904Y-51535176D02*
X88814285Y-51630414D01*
X88814285Y-51630414D02*
X88766666Y-51820890D01*
X88766666Y-51820890D02*
X88766666Y-51963747D01*
X88766666Y-51963747D02*
X88814285Y-52154223D01*
X88814285Y-52154223D02*
X88861904Y-52249461D01*
X88861904Y-52249461D02*
X88957142Y-52344700D01*
X88957142Y-52344700D02*
X89099999Y-52392319D01*
X89099999Y-52392319D02*
X89338094Y-52392319D01*
X87766666Y-52392319D02*
X88099999Y-51916128D01*
X88338094Y-52392319D02*
X88338094Y-51392319D01*
X88338094Y-51392319D02*
X87957142Y-51392319D01*
X87957142Y-51392319D02*
X87861904Y-51439938D01*
X87861904Y-51439938D02*
X87814285Y-51487557D01*
X87814285Y-51487557D02*
X87766666Y-51582795D01*
X87766666Y-51582795D02*
X87766666Y-51725652D01*
X87766666Y-51725652D02*
X87814285Y-51820890D01*
X87814285Y-51820890D02*
X87861904Y-51868509D01*
X87861904Y-51868509D02*
X87957142Y-51916128D01*
X87957142Y-51916128D02*
X88338094Y-51916128D01*
X86814285Y-52392319D02*
X87385713Y-52392319D01*
X87099999Y-52392319D02*
X87099999Y-51392319D01*
X87099999Y-51392319D02*
X87195237Y-51535176D01*
X87195237Y-51535176D02*
X87290475Y-51630414D01*
X87290475Y-51630414D02*
X87385713Y-51678033D01*
X95838094Y-50392319D02*
X95838094Y-49392319D01*
X95838094Y-49392319D02*
X95599999Y-49392319D01*
X95599999Y-49392319D02*
X95457142Y-49439938D01*
X95457142Y-49439938D02*
X95361904Y-49535176D01*
X95361904Y-49535176D02*
X95314285Y-49630414D01*
X95314285Y-49630414D02*
X95266666Y-49820890D01*
X95266666Y-49820890D02*
X95266666Y-49963747D01*
X95266666Y-49963747D02*
X95314285Y-50154223D01*
X95314285Y-50154223D02*
X95361904Y-50249461D01*
X95361904Y-50249461D02*
X95457142Y-50344700D01*
X95457142Y-50344700D02*
X95599999Y-50392319D01*
X95599999Y-50392319D02*
X95838094Y-50392319D01*
X94266666Y-50297080D02*
X94314285Y-50344700D01*
X94314285Y-50344700D02*
X94457142Y-50392319D01*
X94457142Y-50392319D02*
X94552380Y-50392319D01*
X94552380Y-50392319D02*
X94695237Y-50344700D01*
X94695237Y-50344700D02*
X94790475Y-50249461D01*
X94790475Y-50249461D02*
X94838094Y-50154223D01*
X94838094Y-50154223D02*
X94885713Y-49963747D01*
X94885713Y-49963747D02*
X94885713Y-49820890D01*
X94885713Y-49820890D02*
X94838094Y-49630414D01*
X94838094Y-49630414D02*
X94790475Y-49535176D01*
X94790475Y-49535176D02*
X94695237Y-49439938D01*
X94695237Y-49439938D02*
X94552380Y-49392319D01*
X94552380Y-49392319D02*
X94457142Y-49392319D01*
X94457142Y-49392319D02*
X94314285Y-49439938D01*
X94314285Y-49439938D02*
X94266666Y-49487557D01*
X93409523Y-49392319D02*
X93599999Y-49392319D01*
X93599999Y-49392319D02*
X93695237Y-49439938D01*
X93695237Y-49439938D02*
X93742856Y-49487557D01*
X93742856Y-49487557D02*
X93838094Y-49630414D01*
X93838094Y-49630414D02*
X93885713Y-49820890D01*
X93885713Y-49820890D02*
X93885713Y-50201842D01*
X93885713Y-50201842D02*
X93838094Y-50297080D01*
X93838094Y-50297080D02*
X93790475Y-50344700D01*
X93790475Y-50344700D02*
X93695237Y-50392319D01*
X93695237Y-50392319D02*
X93504761Y-50392319D01*
X93504761Y-50392319D02*
X93409523Y-50344700D01*
X93409523Y-50344700D02*
X93361904Y-50297080D01*
X93361904Y-50297080D02*
X93314285Y-50201842D01*
X93314285Y-50201842D02*
X93314285Y-49963747D01*
X93314285Y-49963747D02*
X93361904Y-49868509D01*
X93361904Y-49868509D02*
X93409523Y-49820890D01*
X93409523Y-49820890D02*
X93504761Y-49773271D01*
X93504761Y-49773271D02*
X93695237Y-49773271D01*
X93695237Y-49773271D02*
X93790475Y-49820890D01*
X93790475Y-49820890D02*
X93838094Y-49868509D01*
X93838094Y-49868509D02*
X93885713Y-49963747D01*
X77592319Y-46441905D02*
X76592319Y-46441905D01*
X76592319Y-46441905D02*
X76592319Y-46680000D01*
X76592319Y-46680000D02*
X76639938Y-46822857D01*
X76639938Y-46822857D02*
X76735176Y-46918095D01*
X76735176Y-46918095D02*
X76830414Y-46965714D01*
X76830414Y-46965714D02*
X77020890Y-47013333D01*
X77020890Y-47013333D02*
X77163747Y-47013333D01*
X77163747Y-47013333D02*
X77354223Y-46965714D01*
X77354223Y-46965714D02*
X77449461Y-46918095D01*
X77449461Y-46918095D02*
X77544700Y-46822857D01*
X77544700Y-46822857D02*
X77592319Y-46680000D01*
X77592319Y-46680000D02*
X77592319Y-46441905D01*
X77497080Y-48013333D02*
X77544700Y-47965714D01*
X77544700Y-47965714D02*
X77592319Y-47822857D01*
X77592319Y-47822857D02*
X77592319Y-47727619D01*
X77592319Y-47727619D02*
X77544700Y-47584762D01*
X77544700Y-47584762D02*
X77449461Y-47489524D01*
X77449461Y-47489524D02*
X77354223Y-47441905D01*
X77354223Y-47441905D02*
X77163747Y-47394286D01*
X77163747Y-47394286D02*
X77020890Y-47394286D01*
X77020890Y-47394286D02*
X76830414Y-47441905D01*
X76830414Y-47441905D02*
X76735176Y-47489524D01*
X76735176Y-47489524D02*
X76639938Y-47584762D01*
X76639938Y-47584762D02*
X76592319Y-47727619D01*
X76592319Y-47727619D02*
X76592319Y-47822857D01*
X76592319Y-47822857D02*
X76639938Y-47965714D01*
X76639938Y-47965714D02*
X76687557Y-48013333D01*
X77592319Y-48965714D02*
X77592319Y-48394286D01*
X77592319Y-48680000D02*
X76592319Y-48680000D01*
X76592319Y-48680000D02*
X76735176Y-48584762D01*
X76735176Y-48584762D02*
X76830414Y-48489524D01*
X76830414Y-48489524D02*
X76878033Y-48394286D01*
X92850594Y-46142319D02*
X92850594Y-45142319D01*
X92850594Y-45142319D02*
X92612499Y-45142319D01*
X92612499Y-45142319D02*
X92469642Y-45189938D01*
X92469642Y-45189938D02*
X92374404Y-45285176D01*
X92374404Y-45285176D02*
X92326785Y-45380414D01*
X92326785Y-45380414D02*
X92279166Y-45570890D01*
X92279166Y-45570890D02*
X92279166Y-45713747D01*
X92279166Y-45713747D02*
X92326785Y-45904223D01*
X92326785Y-45904223D02*
X92374404Y-45999461D01*
X92374404Y-45999461D02*
X92469642Y-46094700D01*
X92469642Y-46094700D02*
X92612499Y-46142319D01*
X92612499Y-46142319D02*
X92850594Y-46142319D01*
X91279166Y-46047080D02*
X91326785Y-46094700D01*
X91326785Y-46094700D02*
X91469642Y-46142319D01*
X91469642Y-46142319D02*
X91564880Y-46142319D01*
X91564880Y-46142319D02*
X91707737Y-46094700D01*
X91707737Y-46094700D02*
X91802975Y-45999461D01*
X91802975Y-45999461D02*
X91850594Y-45904223D01*
X91850594Y-45904223D02*
X91898213Y-45713747D01*
X91898213Y-45713747D02*
X91898213Y-45570890D01*
X91898213Y-45570890D02*
X91850594Y-45380414D01*
X91850594Y-45380414D02*
X91802975Y-45285176D01*
X91802975Y-45285176D02*
X91707737Y-45189938D01*
X91707737Y-45189938D02*
X91564880Y-45142319D01*
X91564880Y-45142319D02*
X91469642Y-45142319D01*
X91469642Y-45142319D02*
X91326785Y-45189938D01*
X91326785Y-45189938D02*
X91279166Y-45237557D01*
X90422023Y-45475652D02*
X90422023Y-46142319D01*
X90660118Y-45094700D02*
X90898213Y-45808985D01*
X90898213Y-45808985D02*
X90279166Y-45808985D01*
%TO.C,DR5*%
D11*
X87682776Y-53415000D02*
X88192224Y-53415000D01*
X87682776Y-54460000D02*
X88192224Y-54460000D01*
%TO.C,BCC3*%
X77040000Y-53153733D02*
X77040000Y-53446267D01*
X78060000Y-53153733D02*
X78060000Y-53446267D01*
%TO.C,DR2*%
X88417224Y-48477500D02*
X87907776Y-48477500D01*
X88417224Y-49522500D02*
X87907776Y-49522500D01*
%TO.C,DC3*%
X91466233Y-47740000D02*
X91758767Y-47740000D01*
X91466233Y-48760000D02*
X91758767Y-48760000D01*
%TO.C,DC7*%
X79240000Y-47508767D02*
X79240000Y-47216233D01*
X80260000Y-47508767D02*
X80260000Y-47216233D01*
%TO.C,BB1*%
X80490000Y-54572500D02*
X83210000Y-54572500D01*
X83210000Y-51802500D02*
X80490000Y-51802500D01*
X79960000Y-54187500D02*
X79630000Y-53947500D01*
X79630000Y-54427500D01*
X79960000Y-54187500D01*
G36*
X79960000Y-54187500D02*
G01*
X79630000Y-54427500D01*
X79630000Y-53947500D01*
X79960000Y-54187500D01*
G37*
%TO.C,DR3*%
X80727500Y-47667224D02*
X80727500Y-47157776D01*
X81772500Y-47667224D02*
X81772500Y-47157776D01*
%TO.C,DS1*%
D12*
X95200000Y-40250000D02*
G75*
G02*
X94500000Y-40250000I-350000J0D01*
G01*
X94500000Y-40250000D02*
G75*
G02*
X95200000Y-40250000I350000J0D01*
G01*
X79200000Y-40250000D02*
G75*
G02*
X78500000Y-40250000I-350000J0D01*
G01*
X78500000Y-40250000D02*
G75*
G02*
X79200000Y-40250000I350000J0D01*
G01*
D11*
X98000000Y-45150000D02*
X75700000Y-45150000D01*
X98000000Y-43000000D02*
X98000000Y-45150000D01*
X75700000Y-45150000D02*
X75700000Y-43000000D01*
%TO.C,DR4*%
X91257776Y-57415000D02*
X91767224Y-57415000D01*
X91257776Y-58460000D02*
X91767224Y-58460000D01*
%TO.C,BCR1*%
X81507776Y-54915000D02*
X82017224Y-54915000D01*
X81507776Y-55960000D02*
X82017224Y-55960000D01*
%TO.C,DC5*%
X95740000Y-47466233D02*
X95740000Y-47758767D01*
X96760000Y-47466233D02*
X96760000Y-47758767D01*
%TO.C,DB2*%
X86390000Y-62317500D02*
X86390000Y-59557500D01*
X94120000Y-59557500D02*
X86390000Y-59557500D01*
X94120000Y-62317500D02*
X86390000Y-62317500D01*
X94120000Y-62317500D02*
X94120000Y-59557500D01*
X95390000Y-62317500D02*
X96770000Y-62317500D01*
X96770000Y-62317500D02*
X96770000Y-60937500D01*
%TO.C,DB4*%
X82470000Y-62207500D02*
X82470000Y-62317500D01*
X85230000Y-59557500D02*
X83850000Y-59557500D01*
X85230000Y-60937500D02*
X85230000Y-59557500D01*
X85230000Y-62207500D02*
X82470000Y-62207500D01*
X85230000Y-62207500D02*
X85230000Y-62317500D01*
X85230000Y-62317500D02*
X82470000Y-62317500D01*
%TO.C,BCC1*%
X84590000Y-54446267D02*
X84590000Y-54153733D01*
X85610000Y-54446267D02*
X85610000Y-54153733D01*
%TO.C,DQ1*%
X76040000Y-56365000D02*
X76040000Y-57885000D01*
X76040000Y-57885000D02*
X76090000Y-57885000D01*
X77040000Y-56365000D02*
X76040000Y-56365000D01*
X77210000Y-57885000D02*
X77990000Y-57885000D01*
X79110000Y-57885000D02*
X79160000Y-57885000D01*
X79160000Y-56365000D02*
X78160000Y-56365000D01*
X79160000Y-57885000D02*
X79160000Y-56365000D01*
X77980000Y-58425000D02*
X77650000Y-58185000D01*
X77650000Y-58665000D01*
X77980000Y-58425000D01*
G36*
X77980000Y-58425000D02*
G01*
X77650000Y-58665000D01*
X77650000Y-58185000D01*
X77980000Y-58425000D01*
G37*
%TO.C,DQ2*%
X86540000Y-56240000D02*
X86540000Y-57760000D01*
X86540000Y-57760000D02*
X87540000Y-57760000D01*
X86590000Y-56240000D02*
X86540000Y-56240000D01*
X88490000Y-56240000D02*
X87710000Y-56240000D01*
X88660000Y-57760000D02*
X89660000Y-57760000D01*
X89660000Y-56240000D02*
X89610000Y-56240000D01*
X89660000Y-57760000D02*
X89660000Y-56240000D01*
X87720000Y-55700000D02*
X88050000Y-55940000D01*
X88050000Y-55460000D01*
X87720000Y-55700000D01*
G36*
X88050000Y-55940000D02*
G01*
X87720000Y-55700000D01*
X88050000Y-55460000D01*
X88050000Y-55940000D01*
G37*
%TO.C,BCR2*%
X83757776Y-56415000D02*
X84267224Y-56415000D01*
X83757776Y-57460000D02*
X84267224Y-57460000D01*
%TO.C,BCC2*%
X81608767Y-50427500D02*
X81316233Y-50427500D01*
X81608767Y-51447500D02*
X81316233Y-51447500D01*
%TO.C,DR1*%
X88442224Y-49987500D02*
X87932776Y-49987500D01*
X88442224Y-51032500D02*
X87932776Y-51032500D01*
%TO.C,DC6*%
X93990000Y-47466233D02*
X93990000Y-47758767D01*
X95010000Y-47466233D02*
X95010000Y-47758767D01*
%TO.C,DC1*%
X76991233Y-45740000D02*
X77283767Y-45740000D01*
X76991233Y-46760000D02*
X77283767Y-46760000D01*
%TO.C,DC4*%
X91758767Y-46240000D02*
X91466233Y-46240000D01*
X91758767Y-47260000D02*
X91466233Y-47260000D01*
%TD*%
M02*
