%TF.GenerationSoftware,KiCad,Pcbnew,10.0.6*%
%TF.CreationDate,2026-10-10T18:05:47-04:00*%
%TF.ProjectId,esp32-wavplayer-final,65737033-322d-4776-9176-706c61796572,rev?*%
%TF.SameCoordinates,Original*%
%TF.FileFunction,Copper,L2,Bot*%
%TF.FilePolarity,Positive*%
%FSLAX46Y46*%
G04 Gerber Fmt 4.6, Leading zero omitted, Abs format (unit mm)*
G04 Created by KiCad (PCBNEW 10.0.6) date 2026-10-10 18:05:47*
%MOMM*%
%LPD*%
G01*
G04 APERTURE LIST*
G04 Aperture macros list*
%AMRoundRect*
0 Rectangle with rounded corners*
0 $1 Rounding radius*
0 $2 $3 $4 $5 $6 $7 $8 $9 X,Y pos of 4 corners*
0 Add a 4 corners polygon primitive as box body*
4,1,4,$2,$3,$4,$5,$6,$7,$8,$9,$2,$3,0*
0 Add four circle primitives for the rounded corners*
1,1,$1+$1,$2,$3*
1,1,$1+$1,$4,$5*
1,1,$1+$1,$6,$7*
1,1,$1+$1,$8,$9*
0 Add four rect primitives between the rounded corners*
20,1,$1+$1,$2,$3,$4,$5,0*
20,1,$1+$1,$4,$5,$6,$7,0*
20,1,$1+$1,$6,$7,$8,$9,0*
20,1,$1+$1,$8,$9,$2,$3,0*%
G04 Aperture macros list end*
%TA.AperFunction,SMDPad,CuDef*%
%ADD10RoundRect,0.237500X-0.250000X-0.237500X0.250000X-0.237500X0.250000X0.237500X-0.250000X0.237500X0*%
%TD*%
%TA.AperFunction,SMDPad,CuDef*%
%ADD11RoundRect,0.237500X-0.237500X0.300000X-0.237500X-0.300000X0.237500X-0.300000X0.237500X0.300000X0*%
%TD*%
%TA.AperFunction,SMDPad,CuDef*%
%ADD12RoundRect,0.237500X0.250000X0.237500X-0.250000X0.237500X-0.250000X-0.237500X0.250000X-0.237500X0*%
%TD*%
%TA.AperFunction,SMDPad,CuDef*%
%ADD13RoundRect,0.237500X-0.300000X-0.237500X0.300000X-0.237500X0.300000X0.237500X-0.300000X0.237500X0*%
%TD*%
%TA.AperFunction,SMDPad,CuDef*%
%ADD14RoundRect,0.237500X0.237500X-0.300000X0.237500X0.300000X-0.237500X0.300000X-0.237500X-0.300000X0*%
%TD*%
%TA.AperFunction,SMDPad,CuDef*%
%ADD15RoundRect,0.062500X-0.350000X-0.062500X0.350000X-0.062500X0.350000X0.062500X-0.350000X0.062500X0*%
%TD*%
%TA.AperFunction,HeatsinkPad*%
%ADD16R,1.200000X2.000000*%
%TD*%
%TA.AperFunction,SMDPad,CuDef*%
%ADD17RoundRect,0.237500X0.237500X-0.250000X0.237500X0.250000X-0.237500X0.250000X-0.237500X-0.250000X0*%
%TD*%
%TA.AperFunction,SMDPad,CuDef*%
%ADD18R,0.400000X2.000000*%
%TD*%
%TA.AperFunction,ComponentPad*%
%ADD19R,1.700000X1.700000*%
%TD*%
%TA.AperFunction,ComponentPad*%
%ADD20C,1.700000*%
%TD*%
%TA.AperFunction,SMDPad,CuDef*%
%ADD21RoundRect,0.150000X0.150000X-0.587500X0.150000X0.587500X-0.150000X0.587500X-0.150000X-0.587500X0*%
%TD*%
%TA.AperFunction,SMDPad,CuDef*%
%ADD22RoundRect,0.100000X-0.100000X0.217500X-0.100000X-0.217500X0.100000X-0.217500X0.100000X0.217500X0*%
%TD*%
%TA.AperFunction,SMDPad,CuDef*%
%ADD23RoundRect,0.150000X-0.150000X0.587500X-0.150000X-0.587500X0.150000X-0.587500X0.150000X0.587500X0*%
%TD*%
%TA.AperFunction,SMDPad,CuDef*%
%ADD24RoundRect,0.237500X0.300000X0.237500X-0.300000X0.237500X-0.300000X-0.237500X0.300000X-0.237500X0*%
%TD*%
%TA.AperFunction,ViaPad*%
%ADD25C,0.300000*%
%TD*%
%TA.AperFunction,Conductor*%
%ADD26C,0.200000*%
%TD*%
G04 APERTURE END LIST*
D10*
%TO.P,DR5,1*%
%TO.N,/GPIO*%
X87025000Y-53937500D03*
%TO.P,DR5,2*%
%TO.N,Earth*%
X88850000Y-53937500D03*
%TD*%
D11*
%TO.P,BCC3,1*%
%TO.N,Earth*%
X77550000Y-52437500D03*
%TO.P,BCC3,2*%
%TO.N,/BATT*%
X77550000Y-54162500D03*
%TD*%
D12*
%TO.P,DR2,1*%
%TO.N,+3V3*%
X89075000Y-49000000D03*
%TO.P,DR2,2*%
%TO.N,/GPIO9*%
X87250000Y-49000000D03*
%TD*%
D13*
%TO.P,DC3,1*%
%TO.N,+3V3*%
X90750000Y-48250000D03*
%TO.P,DC3,2*%
%TO.N,Earth*%
X92475000Y-48250000D03*
%TD*%
D14*
%TO.P,DC7,1*%
%TO.N,Earth*%
X79750000Y-48225000D03*
%TO.P,DC7,2*%
%TO.N,Net-(DS1-VCOMH)*%
X79750000Y-46500000D03*
%TD*%
D15*
%TO.P,BB1,1,VOUT_1*%
%TO.N,/BATT*%
X80637500Y-54187500D03*
%TO.P,BB1,2,L2_2*%
%TO.N,Net-(BB1-L2)*%
X80637500Y-53687500D03*
%TO.P,BB1,3,PGND_3*%
%TO.N,Earth*%
X80637500Y-53187500D03*
%TO.P,BB1,4,L1_4*%
%TO.N,Net-(BB1-L1)*%
X80637500Y-52687500D03*
%TO.P,BB1,5,VIN_5*%
%TO.N,+3V3*%
X80637500Y-52187500D03*
%TO.P,BB1,6,EN_6*%
X83062500Y-52187500D03*
%TO.P,BB1,7,PS/SYNC_7*%
X83062500Y-52687500D03*
%TO.P,BB1,8,VINA_8*%
%TO.N,Net-(BB1-VINA)*%
X83062500Y-53187500D03*
%TO.P,BB1,9,GND_9*%
%TO.N,Earth*%
X83062500Y-53687500D03*
%TO.P,BB1,10,FB_10*%
%TO.N,Net-(BB1-FB)*%
X83062500Y-54187500D03*
D16*
%TO.P,BB1,11,PGND_11*%
%TO.N,Earth*%
X81850000Y-53187500D03*
%TD*%
D17*
%TO.P,DR3,1*%
%TO.N,Earth*%
X81250000Y-48325000D03*
%TO.P,DR3,2*%
%TO.N,Net-(DS1-IREF)*%
X81250000Y-46500000D03*
%TD*%
D18*
%TO.P,DS1,30,GND_30*%
%TO.N,Earth*%
X76700000Y-44000000D03*
%TO.P,DS1,29,VLSS_29*%
X77400000Y-44000000D03*
%TO.P,DS1,28,VCC_28*%
%TO.N,Net-(DS1-VCC)*%
X78100000Y-44000000D03*
%TO.P,DS1,27,VCOMH_27*%
%TO.N,Net-(DS1-VCOMH)*%
X78800000Y-44000000D03*
%TO.P,DS1,26,IREF_26*%
%TO.N,Net-(DS1-IREF)*%
X79500000Y-44000000D03*
%TO.P,DS1,25,D7_25*%
%TO.N,Earth*%
X80200000Y-44000000D03*
%TO.P,DS1,24,D6_24*%
X80900000Y-44000000D03*
%TO.P,DS1,23,D5_23*%
X81600000Y-44000000D03*
%TO.P,DS1,22,D4_22*%
X82300000Y-44000000D03*
%TO.P,DS1,21,D3_21*%
X83000000Y-44000000D03*
%TO.P,DS1,20,D2_20*%
%TO.N,/GPIO8*%
X83700000Y-44000000D03*
%TO.P,DS1,19,D1_19*%
X84400000Y-44000000D03*
%TO.P,DS1,18,D0_18*%
%TO.N,/GPIO9*%
X85100000Y-44000000D03*
%TO.P,DS1,17,E/~{RD}_17*%
%TO.N,Earth*%
X85800000Y-44000000D03*
%TO.P,DS1,16,R/~{W}_16*%
X86500000Y-44000000D03*
%TO.P,DS1,15,D/~{C}_15*%
X87200000Y-44000000D03*
%TO.P,DS1,14,~{RES}_14*%
%TO.N,/GPIO9*%
X87900000Y-44000000D03*
%TO.P,DS1,13,~{CS}_13*%
%TO.N,Earth*%
X88600000Y-44000000D03*
%TO.P,DS1,12,BS2_12*%
X89300000Y-44000000D03*
%TO.P,DS1,11,BS1_11*%
%TO.N,+3V3*%
X90000000Y-44000000D03*
%TO.P,DS1,10,BS0_10*%
%TO.N,Earth*%
X90700000Y-44000000D03*
%TO.P,DS1,9,VDD_9*%
%TO.N,+3V3*%
X91400000Y-44000000D03*
%TO.P,DS1,8,VSS_8*%
%TO.N,Earth*%
X92100000Y-44000000D03*
%TO.P,DS1,7,NC_7*%
%TO.N,unconnected-(DS1-NC-Pad7)*%
X92800000Y-44000000D03*
%TO.P,DS1,6,VBAT_6*%
%TO.N,/VBAT*%
X93500000Y-44000000D03*
%TO.P,DS1,5,C1N_5*%
%TO.N,Net-(DS1-C1N)*%
X94200000Y-44000000D03*
%TO.P,DS1,4,C1P_4*%
%TO.N,Net-(DS1-C1P)*%
X94900000Y-44000000D03*
%TO.P,DS1,3,C2P_3*%
%TO.N,Net-(DS1-C2P)*%
X95600000Y-44000000D03*
%TO.P,DS1,2,C2N_2*%
%TO.N,Net-(DS1-C2N)*%
X96300000Y-44000000D03*
%TO.P,DS1,1,GND_1*%
%TO.N,Earth*%
X97000000Y-44000000D03*
%TD*%
D10*
%TO.P,DR4,1*%
%TO.N,Net-(DQ1-G)*%
X90600000Y-57937500D03*
%TO.P,DR4,2*%
%TO.N,+3V3*%
X92425000Y-57937500D03*
%TD*%
%TO.P,BCR1,1*%
%TO.N,/BATT*%
X80850000Y-55437500D03*
%TO.P,BCR1,2*%
%TO.N,Net-(BB1-FB)*%
X82675000Y-55437500D03*
%TD*%
D11*
%TO.P,DC5,1*%
%TO.N,Net-(DS1-C2N)*%
X96250000Y-46750000D03*
%TO.P,DC5,2*%
%TO.N,Net-(DS1-C2P)*%
X96250000Y-48475000D03*
%TD*%
D19*
%TO.P,DB2,1,Pin_1_1*%
%TO.N,+3V3*%
X95390000Y-60937500D03*
D20*
%TO.P,DB2,2,Pin_2_2*%
%TO.N,Earth*%
X92850000Y-60937500D03*
%TO.P,DB2,3,Pin_3_3*%
%TO.N,/GPIO9*%
X90310000Y-60937500D03*
%TO.P,DB2,4,Pin_4_4*%
%TO.N,/GPIO8*%
X87770000Y-60937500D03*
%TD*%
D19*
%TO.P,DB4,1,Pin_1_1*%
%TO.N,/VBAT*%
X83850000Y-60937500D03*
%TD*%
D14*
%TO.P,BCC1,1*%
%TO.N,Earth*%
X85100000Y-55162500D03*
%TO.P,BCC1,2*%
%TO.N,Net-(BB1-VINA)*%
X85100000Y-53437500D03*
%TD*%
D21*
%TO.P,DQ1,1,G_1*%
%TO.N,Net-(DQ1-G)*%
X78550000Y-58062500D03*
%TO.P,DQ1,2,S_2*%
%TO.N,/VBAT*%
X76650000Y-58062500D03*
%TO.P,DQ1,3,D_3*%
%TO.N,/BATT*%
X77600000Y-56187500D03*
%TD*%
D22*
%TO.P,BCL1,1,1_1*%
%TO.N,Net-(BB1-L1)*%
X79100000Y-51622500D03*
%TO.P,BCL1,2,2_2*%
%TO.N,Net-(BB1-L2)*%
X79100000Y-52437500D03*
%TD*%
D23*
%TO.P,DQ2,1,G_1*%
%TO.N,/GPIO*%
X87150000Y-56062500D03*
%TO.P,DQ2,2,S_2*%
%TO.N,Earth*%
X89050000Y-56062500D03*
%TO.P,DQ2,3,D_3*%
%TO.N,Net-(DQ1-G)*%
X88100000Y-57937500D03*
%TD*%
D10*
%TO.P,BCR2,1*%
%TO.N,Net-(BB1-FB)*%
X83100000Y-56937500D03*
%TO.P,BCR2,2*%
%TO.N,Earth*%
X84925000Y-56937500D03*
%TD*%
D24*
%TO.P,BCC2,1*%
%TO.N,Earth*%
X82325000Y-50937500D03*
%TO.P,BCC2,2*%
%TO.N,+3V3*%
X80600000Y-50937500D03*
%TD*%
D12*
%TO.P,DR1,1*%
%TO.N,+3V3*%
X89100000Y-50510000D03*
%TO.P,DR1,2*%
%TO.N,/GPIO8*%
X87275000Y-50510000D03*
%TD*%
D11*
%TO.P,DC6,1*%
%TO.N,Net-(DS1-C1P)*%
X94500000Y-46750000D03*
%TO.P,DC6,2*%
%TO.N,Net-(DS1-C1N)*%
X94500000Y-48475000D03*
%TD*%
D13*
%TO.P,DC1,1*%
%TO.N,Earth*%
X76275000Y-46250000D03*
%TO.P,DC1,2*%
%TO.N,Net-(DS1-VCC)*%
X78000000Y-46250000D03*
%TD*%
D24*
%TO.P,DC4,1*%
%TO.N,Earth*%
X92475000Y-46750000D03*
%TO.P,DC4,2*%
%TO.N,+3V3*%
X90750000Y-46750000D03*
%TD*%
D25*
%TO.N,Earth*%
X91850000Y-59687500D03*
%TO.N,/GPIO8*%
X87850000Y-59687500D03*
X87600000Y-52437500D03*
%TO.N,/GPIO9*%
X88850000Y-52187500D03*
X90350000Y-59687500D03*
%TO.N,+3V3*%
X95100000Y-58687500D03*
X95350000Y-59687500D03*
%TO.N,Earth*%
X91350000Y-55937500D03*
%TD*%
%TO.N,Earth*%
D26*
X83200000Y-42700000D02*
X87100000Y-42700000D01*
%TO.N,/GPIO9*%
X87900000Y-46000000D02*
X87900000Y-44000000D01*
%TO.N,Earth*%
X81250000Y-48325000D02*
X79792592Y-48325000D01*
X76375000Y-51742592D02*
X76375000Y-56340552D01*
X79792592Y-48325000D02*
X76375000Y-51742592D01*
X77259448Y-57225000D02*
X77940552Y-57225000D01*
X81850000Y-55691722D02*
X81850000Y-53187500D01*
X76375000Y-56340552D02*
X77259448Y-57225000D01*
X81329222Y-56212500D02*
X81850000Y-55691722D01*
X77940552Y-57225000D02*
X78953052Y-56212500D01*
X78953052Y-56212500D02*
X81329222Y-56212500D01*
%TO.N,+3V3*%
X83162500Y-50470778D02*
X84996881Y-50470778D01*
X88786397Y-52887500D02*
X90750000Y-50923897D01*
X84996881Y-50470778D02*
X87413603Y-52887500D01*
X87413603Y-52887500D02*
X88786397Y-52887500D01*
X90750000Y-50923897D02*
X90750000Y-48250000D01*
X90750000Y-46750000D02*
X90000000Y-46000000D01*
X90000000Y-46000000D02*
X90000000Y-44000000D01*
%TO.N,Net-(DS1-VCC)*%
X78100000Y-46150000D02*
X78000000Y-46250000D01*
X78100000Y-44000000D02*
X78100000Y-46150000D01*
%TO.N,Net-(DS1-IREF)*%
X79700000Y-45300000D02*
X79500000Y-45100000D01*
X81250000Y-46500000D02*
X80050000Y-45300000D01*
X79500000Y-45100000D02*
X79500000Y-44000000D01*
X80050000Y-45300000D02*
X79700000Y-45300000D01*
%TO.N,Net-(DS1-C1N)*%
X94200000Y-44000000D02*
X94200000Y-45745778D01*
X94200000Y-45745778D02*
X93725000Y-46220778D01*
X93725000Y-46220778D02*
X93725000Y-47700000D01*
X93725000Y-47700000D02*
X94500000Y-48475000D01*
%TO.N,Net-(DS1-C1P)*%
X94900000Y-46350000D02*
X94900000Y-44000000D01*
X94500000Y-46750000D02*
X94900000Y-46350000D01*
%TO.N,Net-(BB1-FB)*%
X83100000Y-55862500D02*
X82675000Y-55437500D01*
X83100000Y-56937500D02*
X83100000Y-55862500D01*
X82675000Y-54575000D02*
X83062500Y-54187500D01*
X82675000Y-55437500D02*
X82675000Y-54575000D01*
%TO.N,Net-(DS1-C2P)*%
X95475000Y-44125000D02*
X95600000Y-44000000D01*
X96250000Y-48475000D02*
X95475000Y-47700000D01*
X95475000Y-47700000D02*
X95475000Y-44125000D01*
%TO.N,Net-(DS1-C2N)*%
X96250000Y-46750000D02*
X96250000Y-44050000D01*
X96250000Y-44050000D02*
X96300000Y-44000000D01*
%TO.N,Net-(BB1-VINA)*%
X83062500Y-53187500D02*
X84850000Y-53187500D01*
X84850000Y-53187500D02*
X85100000Y-53437500D01*
%TO.N,/BATT*%
X77600000Y-56187500D02*
X77600000Y-54212500D01*
X80612500Y-54162500D02*
X80637500Y-54187500D01*
X80850000Y-55437500D02*
X80850000Y-54400000D01*
X80850000Y-54400000D02*
X80637500Y-54187500D01*
X77550000Y-54162500D02*
X80612500Y-54162500D01*
X77600000Y-54212500D02*
X77550000Y-54162500D01*
%TO.N,/VBAT*%
X93325000Y-48604222D02*
X93325000Y-44175000D01*
X83850000Y-59650000D02*
X84350000Y-59150000D01*
X93325000Y-44175000D02*
X93500000Y-44000000D01*
X76650000Y-58062500D02*
X77737500Y-59150000D01*
%TO.N,Earth*%
X90850000Y-55937500D02*
X90725000Y-56062500D01*
X82350000Y-53687500D02*
X83062500Y-53687500D01*
X83062500Y-53687500D02*
X83625000Y-53687500D01*
X91350000Y-55937500D02*
X90850000Y-55937500D01*
X92475000Y-48250000D02*
X92475000Y-46750000D01*
X77800000Y-52687500D02*
X78350000Y-52687500D01*
X92200000Y-42700000D02*
X92100000Y-42800000D01*
X92850000Y-60687500D02*
X91850000Y-59687500D01*
X88596948Y-56062500D02*
X89050000Y-56062500D01*
X87200000Y-42800000D02*
X87300000Y-42700000D01*
X89050000Y-56062500D02*
X89050000Y-54137500D01*
X79850000Y-48325000D02*
X79750000Y-48225000D01*
X81850000Y-53187500D02*
X81850000Y-51412500D01*
X78250000Y-48225000D02*
X76275000Y-46250000D01*
X89250000Y-42700000D02*
X90500000Y-42700000D01*
X90700000Y-44000000D02*
X90700000Y-42900000D01*
X79750000Y-48225000D02*
X78250000Y-48225000D01*
X90900000Y-42700000D02*
X92000000Y-42700000D01*
X87100000Y-42700000D02*
X87200000Y-42800000D01*
X85100000Y-55162500D02*
X85100000Y-56762500D01*
X89200000Y-42750000D02*
X89250000Y-42700000D01*
X84925000Y-56937500D02*
X85650000Y-57662500D01*
X92100000Y-42800000D02*
X92100000Y-44000000D01*
X89200000Y-43900000D02*
X89200000Y-42750000D01*
X83000000Y-44000000D02*
X83000000Y-42900000D01*
X90500000Y-42700000D02*
X90700000Y-42900000D01*
X92100000Y-46375000D02*
X92100000Y-44000000D01*
X77550000Y-52437500D02*
X77800000Y-52687500D01*
X87200000Y-44000000D02*
X87200000Y-42800000D01*
X76275000Y-46250000D02*
X76275000Y-44425000D01*
X97000000Y-44000000D02*
X97000000Y-42900000D01*
X89050000Y-54137500D02*
X88850000Y-53937500D01*
X81850000Y-53187500D02*
X82350000Y-53687500D01*
X77400000Y-44000000D02*
X76700000Y-44000000D01*
X77400000Y-42900000D02*
X77600000Y-42700000D01*
%TO.N,/VBAT*%
X83850000Y-60937500D02*
X83850000Y-59650000D01*
X97900000Y-53179222D02*
X93325000Y-48604222D01*
X77737500Y-59150000D02*
X84350000Y-59150000D01*
X84350000Y-59150000D02*
X97900000Y-59150000D01*
X97900000Y-59150000D02*
X97900000Y-53179222D01*
%TO.N,Net-(BB1-L2)*%
X77133278Y-53325000D02*
X76775000Y-52966722D01*
X76775000Y-51908278D02*
X77083278Y-51600000D01*
X78016722Y-53325000D02*
X77133278Y-53325000D01*
X78016722Y-51600000D02*
X78854222Y-52437500D01*
X76775000Y-52966722D02*
X76775000Y-51908278D01*
X77083278Y-51600000D02*
X78016722Y-51600000D01*
X78379222Y-53687500D02*
X78016722Y-53325000D01*
X78854222Y-52437500D02*
X79100000Y-52437500D01*
X80637500Y-53687500D02*
X78379222Y-53687500D01*
%TO.N,Net-(BB1-L1)*%
X79600000Y-52076886D02*
X79600000Y-51937500D01*
X79285000Y-51622500D02*
X79100000Y-51622500D01*
X80210614Y-52687500D02*
X79600000Y-52076886D01*
X80637500Y-52687500D02*
X80210614Y-52687500D01*
X79600000Y-51937500D02*
X79285000Y-51622500D01*
%TO.N,Net-(DQ1-G)*%
X78550000Y-58062500D02*
X87975000Y-58062500D01*
X87975000Y-58062500D02*
X88100000Y-57937500D01*
X90600000Y-57937500D02*
X88100000Y-57937500D01*
%TO.N,/GPIO*%
X87150000Y-56062500D02*
X87150000Y-54062500D01*
X87150000Y-54062500D02*
X87025000Y-53937500D01*
%TO.N,Net-(DS1-VCOMH)*%
X78800000Y-45550000D02*
X78800000Y-44000000D01*
X79750000Y-46500000D02*
X78800000Y-45550000D01*
%TO.N,/GPIO8*%
X83700000Y-46935000D02*
X83700000Y-44000000D01*
X87770000Y-59767500D02*
X87850000Y-59687500D01*
X87275000Y-50510000D02*
X83700000Y-46935000D01*
X87600000Y-52437500D02*
X87275000Y-52112500D01*
X87275000Y-52112500D02*
X87275000Y-50510000D01*
X84400000Y-44000000D02*
X83700000Y-44000000D01*
X87770000Y-60937500D02*
X87770000Y-59767500D01*
%TO.N,/GPIO9*%
X88850000Y-52187500D02*
X88062500Y-51400000D01*
X88062500Y-51400000D02*
X88062500Y-49812500D01*
X90310000Y-59727500D02*
X90350000Y-59687500D01*
X87250000Y-49000000D02*
X87900000Y-48350000D01*
X88062500Y-49812500D02*
X87250000Y-49000000D01*
X90310000Y-60937500D02*
X90310000Y-59727500D01*
%TO.N,Earth*%
X86996948Y-57662500D02*
X88596948Y-56062500D01*
X81250000Y-48325000D02*
X79850000Y-48325000D01*
X92850000Y-60937500D02*
X93350000Y-60937500D01*
X77600000Y-42700000D02*
X82900000Y-42700000D01*
X89150000Y-42700000D02*
X89200000Y-42750000D01*
X90725000Y-56062500D02*
X89050000Y-56062500D01*
X90700000Y-42900000D02*
X90900000Y-42700000D01*
X77400000Y-44000000D02*
X77400000Y-42900000D01*
X87300000Y-42700000D02*
X89150000Y-42700000D01*
X80200000Y-44000000D02*
X83000000Y-44000000D01*
X82900000Y-42700000D02*
X83050000Y-42850000D01*
X92000000Y-42700000D02*
X92100000Y-42800000D01*
X76275000Y-44425000D02*
X76700000Y-44000000D01*
X92475000Y-46750000D02*
X92100000Y-46375000D01*
X89300000Y-44000000D02*
X88600000Y-44000000D01*
X92850000Y-60937500D02*
X92850000Y-60687500D01*
X86500000Y-44000000D02*
X85800000Y-44000000D01*
X83625000Y-53687500D02*
X85100000Y-55162500D01*
X96800000Y-42700000D02*
X92200000Y-42700000D01*
X83000000Y-42900000D02*
X83050000Y-42850000D01*
X97000000Y-42900000D02*
X96800000Y-42700000D01*
X87200000Y-44000000D02*
X86500000Y-44000000D01*
X85650000Y-57662500D02*
X86996948Y-57662500D01*
X81850000Y-51412500D02*
X82325000Y-50937500D01*
X85100000Y-56762500D02*
X84925000Y-56937500D01*
X78350000Y-52687500D02*
X78850000Y-53187500D01*
X78850000Y-53187500D02*
X80637500Y-53187500D01*
X81850000Y-53187500D02*
X80637500Y-53187500D01*
X83050000Y-42850000D02*
X83200000Y-42700000D01*
%TO.N,+3V3*%
X89100000Y-49025000D02*
X89075000Y-49000000D01*
X97500000Y-53344908D02*
X94846296Y-50691204D01*
X80600000Y-52150000D02*
X80637500Y-52187500D01*
X89075000Y-49000000D02*
X90000000Y-49000000D01*
X97500000Y-57937500D02*
X97500000Y-53344908D01*
X95390000Y-59727500D02*
X95350000Y-59687500D01*
X94600000Y-57937500D02*
X97500000Y-57937500D01*
X89100000Y-50510000D02*
X89100000Y-49025000D01*
X83062500Y-52187500D02*
X83062500Y-52687500D01*
X83162500Y-52087500D02*
X83162500Y-50470778D01*
X94600000Y-58187500D02*
X94600000Y-57937500D01*
X83062500Y-52187500D02*
X83162500Y-52087500D01*
X95100000Y-58687500D02*
X94600000Y-58187500D01*
X91400000Y-46100000D02*
X91400000Y-44000000D01*
X90000000Y-49000000D02*
X90750000Y-48250000D01*
X82854222Y-50162500D02*
X81375000Y-50162500D01*
X81375000Y-50162500D02*
X80600000Y-50937500D01*
X90750000Y-48250000D02*
X90750000Y-46750000D01*
X93191204Y-50691204D02*
X90750000Y-48250000D01*
X95390000Y-60937500D02*
X95390000Y-59727500D01*
X94846296Y-50691204D02*
X93191204Y-50691204D01*
X83162500Y-50470778D02*
X82854222Y-50162500D01*
X80600000Y-50937500D02*
X80600000Y-52150000D01*
X92425000Y-57937500D02*
X94600000Y-57937500D01*
X90750000Y-46750000D02*
X91400000Y-46100000D01*
%TO.N,/GPIO9*%
X87900000Y-48350000D02*
X87900000Y-46000000D01*
X85100000Y-45200000D02*
X85100000Y-44000000D01*
X85900000Y-46000000D02*
X85100000Y-45200000D01*
X87900000Y-46000000D02*
X85900000Y-46000000D01*
%TD*%
M02*
