%TF.GenerationSoftware,KiCad,Pcbnew,10.0.6*%
%TF.CreationDate,2026-10-10T18:05:47-04:00*%
%TF.ProjectId,esp32-wavplayer-final,65737033-322d-4776-9176-706c61796572,rev?*%
%TF.SameCoordinates,Original*%
%TF.FileFunction,Paste,Bot*%
%TF.FilePolarity,Positive*%
%FSLAX46Y46*%
G04 Gerber Fmt 4.6, Leading zero omitted, Abs format (unit mm)*
G04 Created by KiCad (PCBNEW 10.0.6) date 2026-10-10 18:05:47*
%MOMM*%
%LPD*%
G01*
G04 APERTURE LIST*
G04 Aperture macros list*
%AMRoundRect*
0 Rectangle with rounded corners*
0 $1 Rounding radius*
0 $2 $3 $4 $5 $6 $7 $8 $9 X,Y pos of 4 corners*
0 Add a 4 corners polygon primitive as box body*
4,1,4,$2,$3,$4,$5,$6,$7,$8,$9,$2,$3,0*
0 Add four circle primitives for the rounded corners*
1,1,$1+$1,$2,$3*
1,1,$1+$1,$4,$5*
1,1,$1+$1,$6,$7*
1,1,$1+$1,$8,$9*
0 Add four rect primitives between the rounded corners*
20,1,$1+$1,$2,$3,$4,$5,0*
20,1,$1+$1,$4,$5,$6,$7,0*
20,1,$1+$1,$6,$7,$8,$9,0*
20,1,$1+$1,$8,$9,$2,$3,0*%
G04 Aperture macros list end*
%ADD10RoundRect,0.237500X-0.250000X-0.237500X0.250000X-0.237500X0.250000X0.237500X-0.250000X0.237500X0*%
%ADD11RoundRect,0.237500X-0.237500X0.300000X-0.237500X-0.300000X0.237500X-0.300000X0.237500X0.300000X0*%
%ADD12RoundRect,0.237500X0.250000X0.237500X-0.250000X0.237500X-0.250000X-0.237500X0.250000X-0.237500X0*%
%ADD13RoundRect,0.237500X-0.300000X-0.237500X0.300000X-0.237500X0.300000X0.237500X-0.300000X0.237500X0*%
%ADD14RoundRect,0.237500X0.237500X-0.300000X0.237500X0.300000X-0.237500X0.300000X-0.237500X-0.300000X0*%
%ADD15RoundRect,0.120000X-0.120000X-0.285000X0.120000X-0.285000X0.120000X0.285000X-0.120000X0.285000X0*%
%ADD16RoundRect,0.062500X-0.350000X-0.062500X0.350000X-0.062500X0.350000X0.062500X-0.350000X0.062500X0*%
%ADD17RoundRect,0.237500X0.237500X-0.250000X0.237500X0.250000X-0.237500X0.250000X-0.237500X-0.250000X0*%
%ADD18R,0.400000X2.000000*%
%ADD19RoundRect,0.150000X0.150000X-0.587500X0.150000X0.587500X-0.150000X0.587500X-0.150000X-0.587500X0*%
%ADD20RoundRect,0.090000X-0.090000X0.139000X-0.090000X-0.139000X0.090000X-0.139000X0.090000X0.139000X0*%
%ADD21RoundRect,0.150000X-0.150000X0.587500X-0.150000X-0.587500X0.150000X-0.587500X0.150000X0.587500X0*%
%ADD22RoundRect,0.237500X0.300000X0.237500X-0.300000X0.237500X-0.300000X-0.237500X0.300000X-0.237500X0*%
G04 APERTURE END LIST*
D10*
%TO.C,DR5*%
X87025000Y-53937500D03*
X88850000Y-53937500D03*
%TD*%
D11*
%TO.C,BCC3*%
X77550000Y-52437500D03*
X77550000Y-54162500D03*
%TD*%
D12*
%TO.C,DR2*%
X89075000Y-49000000D03*
X87250000Y-49000000D03*
%TD*%
D13*
%TO.C,DC3*%
X90750000Y-48250000D03*
X92475000Y-48250000D03*
%TD*%
D14*
%TO.C,DC7*%
X79750000Y-48225000D03*
X79750000Y-46500000D03*
%TD*%
D15*
%TO.C,BB1*%
X81550000Y-52687500D03*
X81550000Y-53687500D03*
X82150000Y-52687500D03*
X82150000Y-53687500D03*
D16*
X80637500Y-54187500D03*
X80637500Y-53687500D03*
X80637500Y-53187500D03*
X80637500Y-52687500D03*
X80637500Y-52187500D03*
X83062500Y-52187500D03*
X83062500Y-52687500D03*
X83062500Y-53187500D03*
X83062500Y-53687500D03*
X83062500Y-54187500D03*
%TD*%
D17*
%TO.C,DR3*%
X81250000Y-48325000D03*
X81250000Y-46500000D03*
%TD*%
D18*
%TO.C,DS1*%
X76700000Y-44000000D03*
X77400000Y-44000000D03*
X78100000Y-44000000D03*
X78800000Y-44000000D03*
X79500000Y-44000000D03*
X80200000Y-44000000D03*
X80900000Y-44000000D03*
X81600000Y-44000000D03*
X82300000Y-44000000D03*
X83000000Y-44000000D03*
X83700000Y-44000000D03*
X84400000Y-44000000D03*
X85100000Y-44000000D03*
X85800000Y-44000000D03*
X86500000Y-44000000D03*
X87200000Y-44000000D03*
X87900000Y-44000000D03*
X88600000Y-44000000D03*
X89300000Y-44000000D03*
X90000000Y-44000000D03*
X90700000Y-44000000D03*
X91400000Y-44000000D03*
X92100000Y-44000000D03*
X92800000Y-44000000D03*
X93500000Y-44000000D03*
X94200000Y-44000000D03*
X94900000Y-44000000D03*
X95600000Y-44000000D03*
X96300000Y-44000000D03*
X97000000Y-44000000D03*
%TD*%
D10*
%TO.C,DR4*%
X90600000Y-57937500D03*
X92425000Y-57937500D03*
%TD*%
%TO.C,BCR1*%
X80850000Y-55437500D03*
X82675000Y-55437500D03*
%TD*%
D11*
%TO.C,DC5*%
X96250000Y-46750000D03*
X96250000Y-48475000D03*
%TD*%
D14*
%TO.C,BCC1*%
X85100000Y-55162500D03*
X85100000Y-53437500D03*
%TD*%
D19*
%TO.C,DQ1*%
X78550000Y-58062500D03*
X76650000Y-58062500D03*
X77600000Y-56187500D03*
%TD*%
D20*
%TO.C,BCL1*%
X79100000Y-51597500D03*
X79100000Y-52462500D03*
%TD*%
D21*
%TO.C,DQ2*%
X87150000Y-56062500D03*
X89050000Y-56062500D03*
X88100000Y-57937500D03*
%TD*%
D10*
%TO.C,BCR2*%
X83100000Y-56937500D03*
X84925000Y-56937500D03*
%TD*%
D22*
%TO.C,BCC2*%
X82325000Y-50937500D03*
X80600000Y-50937500D03*
%TD*%
D12*
%TO.C,DR1*%
X89100000Y-50510000D03*
X87275000Y-50510000D03*
%TD*%
D11*
%TO.C,DC6*%
X94500000Y-46750000D03*
X94500000Y-48475000D03*
%TD*%
D13*
%TO.C,DC1*%
X76275000Y-46250000D03*
X78000000Y-46250000D03*
%TD*%
D22*
%TO.C,DC4*%
X92475000Y-46750000D03*
X90750000Y-46750000D03*
%TD*%
M02*
