%TF.GenerationSoftware,KiCad,Pcbnew,10.0.6*%
%TF.CreationDate,2026-10-10T17:28:04-04:00*%
%TF.ProjectId,esp32-wavplayer-final,65737033-322d-4776-9176-706c61796572,rev?*%
%TF.SameCoordinates,Original*%
%TF.FileFunction,Legend,Top*%
%TF.FilePolarity,Positive*%
%FSLAX46Y46*%
G04 Gerber Fmt 4.6, Leading zero omitted, Abs format (unit mm)*
G04 Created by KiCad (PCBNEW 10.0.6) date 2026-10-10 17:28:04*
%MOMM*%
%LPD*%
G01*
G04 APERTURE LIST*
%ADD10C,0.150000*%
%ADD11C,0.120000*%
G04 APERTURE END LIST*
D10*
X92963095Y-52522200D02*
X93105952Y-52569819D01*
X93105952Y-52569819D02*
X93344047Y-52569819D01*
X93344047Y-52569819D02*
X93439285Y-52522200D01*
X93439285Y-52522200D02*
X93486904Y-52474580D01*
X93486904Y-52474580D02*
X93534523Y-52379342D01*
X93534523Y-52379342D02*
X93534523Y-52284104D01*
X93534523Y-52284104D02*
X93486904Y-52188866D01*
X93486904Y-52188866D02*
X93439285Y-52141247D01*
X93439285Y-52141247D02*
X93344047Y-52093628D01*
X93344047Y-52093628D02*
X93153571Y-52046009D01*
X93153571Y-52046009D02*
X93058333Y-51998390D01*
X93058333Y-51998390D02*
X93010714Y-51950771D01*
X93010714Y-51950771D02*
X92963095Y-51855533D01*
X92963095Y-51855533D02*
X92963095Y-51760295D01*
X92963095Y-51760295D02*
X93010714Y-51665057D01*
X93010714Y-51665057D02*
X93058333Y-51617438D01*
X93058333Y-51617438D02*
X93153571Y-51569819D01*
X93153571Y-51569819D02*
X93391666Y-51569819D01*
X93391666Y-51569819D02*
X93534523Y-51617438D01*
X94534523Y-52569819D02*
X94201190Y-52093628D01*
X93963095Y-52569819D02*
X93963095Y-51569819D01*
X93963095Y-51569819D02*
X94344047Y-51569819D01*
X94344047Y-51569819D02*
X94439285Y-51617438D01*
X94439285Y-51617438D02*
X94486904Y-51665057D01*
X94486904Y-51665057D02*
X94534523Y-51760295D01*
X94534523Y-51760295D02*
X94534523Y-51903152D01*
X94534523Y-51903152D02*
X94486904Y-51998390D01*
X94486904Y-51998390D02*
X94439285Y-52046009D01*
X94439285Y-52046009D02*
X94344047Y-52093628D01*
X94344047Y-52093628D02*
X93963095Y-52093628D01*
X94915476Y-51665057D02*
X94963095Y-51617438D01*
X94963095Y-51617438D02*
X95058333Y-51569819D01*
X95058333Y-51569819D02*
X95296428Y-51569819D01*
X95296428Y-51569819D02*
X95391666Y-51617438D01*
X95391666Y-51617438D02*
X95439285Y-51665057D01*
X95439285Y-51665057D02*
X95486904Y-51760295D01*
X95486904Y-51760295D02*
X95486904Y-51855533D01*
X95486904Y-51855533D02*
X95439285Y-51998390D01*
X95439285Y-51998390D02*
X94867857Y-52569819D01*
X94867857Y-52569819D02*
X95486904Y-52569819D01*
X72100595Y-40102200D02*
X72243452Y-40149819D01*
X72243452Y-40149819D02*
X72481547Y-40149819D01*
X72481547Y-40149819D02*
X72576785Y-40102200D01*
X72576785Y-40102200D02*
X72624404Y-40054580D01*
X72624404Y-40054580D02*
X72672023Y-39959342D01*
X72672023Y-39959342D02*
X72672023Y-39864104D01*
X72672023Y-39864104D02*
X72624404Y-39768866D01*
X72624404Y-39768866D02*
X72576785Y-39721247D01*
X72576785Y-39721247D02*
X72481547Y-39673628D01*
X72481547Y-39673628D02*
X72291071Y-39626009D01*
X72291071Y-39626009D02*
X72195833Y-39578390D01*
X72195833Y-39578390D02*
X72148214Y-39530771D01*
X72148214Y-39530771D02*
X72100595Y-39435533D01*
X72100595Y-39435533D02*
X72100595Y-39340295D01*
X72100595Y-39340295D02*
X72148214Y-39245057D01*
X72148214Y-39245057D02*
X72195833Y-39197438D01*
X72195833Y-39197438D02*
X72291071Y-39149819D01*
X72291071Y-39149819D02*
X72529166Y-39149819D01*
X72529166Y-39149819D02*
X72672023Y-39197438D01*
X73672023Y-40054580D02*
X73624404Y-40102200D01*
X73624404Y-40102200D02*
X73481547Y-40149819D01*
X73481547Y-40149819D02*
X73386309Y-40149819D01*
X73386309Y-40149819D02*
X73243452Y-40102200D01*
X73243452Y-40102200D02*
X73148214Y-40006961D01*
X73148214Y-40006961D02*
X73100595Y-39911723D01*
X73100595Y-39911723D02*
X73052976Y-39721247D01*
X73052976Y-39721247D02*
X73052976Y-39578390D01*
X73052976Y-39578390D02*
X73100595Y-39387914D01*
X73100595Y-39387914D02*
X73148214Y-39292676D01*
X73148214Y-39292676D02*
X73243452Y-39197438D01*
X73243452Y-39197438D02*
X73386309Y-39149819D01*
X73386309Y-39149819D02*
X73481547Y-39149819D01*
X73481547Y-39149819D02*
X73624404Y-39197438D01*
X73624404Y-39197438D02*
X73672023Y-39245057D01*
X74624404Y-40149819D02*
X74052976Y-40149819D01*
X74338690Y-40149819D02*
X74338690Y-39149819D01*
X74338690Y-39149819D02*
X74243452Y-39292676D01*
X74243452Y-39292676D02*
X74148214Y-39387914D01*
X74148214Y-39387914D02*
X74052976Y-39435533D01*
X92849819Y-40613094D02*
X91849819Y-40613094D01*
X91849819Y-40613094D02*
X91849819Y-40374999D01*
X91849819Y-40374999D02*
X91897438Y-40232142D01*
X91897438Y-40232142D02*
X91992676Y-40136904D01*
X91992676Y-40136904D02*
X92087914Y-40089285D01*
X92087914Y-40089285D02*
X92278390Y-40041666D01*
X92278390Y-40041666D02*
X92421247Y-40041666D01*
X92421247Y-40041666D02*
X92611723Y-40089285D01*
X92611723Y-40089285D02*
X92706961Y-40136904D01*
X92706961Y-40136904D02*
X92802200Y-40232142D01*
X92802200Y-40232142D02*
X92849819Y-40374999D01*
X92849819Y-40374999D02*
X92849819Y-40613094D01*
X92326009Y-39279761D02*
X92373628Y-39136904D01*
X92373628Y-39136904D02*
X92421247Y-39089285D01*
X92421247Y-39089285D02*
X92516485Y-39041666D01*
X92516485Y-39041666D02*
X92659342Y-39041666D01*
X92659342Y-39041666D02*
X92754580Y-39089285D01*
X92754580Y-39089285D02*
X92802200Y-39136904D01*
X92802200Y-39136904D02*
X92849819Y-39232142D01*
X92849819Y-39232142D02*
X92849819Y-39613094D01*
X92849819Y-39613094D02*
X91849819Y-39613094D01*
X91849819Y-39613094D02*
X91849819Y-39279761D01*
X91849819Y-39279761D02*
X91897438Y-39184523D01*
X91897438Y-39184523D02*
X91945057Y-39136904D01*
X91945057Y-39136904D02*
X92040295Y-39089285D01*
X92040295Y-39089285D02*
X92135533Y-39089285D01*
X92135533Y-39089285D02*
X92230771Y-39136904D01*
X92230771Y-39136904D02*
X92278390Y-39184523D01*
X92278390Y-39184523D02*
X92326009Y-39279761D01*
X92326009Y-39279761D02*
X92326009Y-39613094D01*
X92849819Y-38089285D02*
X92849819Y-38660713D01*
X92849819Y-38374999D02*
X91849819Y-38374999D01*
X91849819Y-38374999D02*
X91992676Y-38470237D01*
X91992676Y-38470237D02*
X92087914Y-38565475D01*
X92087914Y-38565475D02*
X92135533Y-38660713D01*
X92963095Y-49032200D02*
X93105952Y-49079819D01*
X93105952Y-49079819D02*
X93344047Y-49079819D01*
X93344047Y-49079819D02*
X93439285Y-49032200D01*
X93439285Y-49032200D02*
X93486904Y-48984580D01*
X93486904Y-48984580D02*
X93534523Y-48889342D01*
X93534523Y-48889342D02*
X93534523Y-48794104D01*
X93534523Y-48794104D02*
X93486904Y-48698866D01*
X93486904Y-48698866D02*
X93439285Y-48651247D01*
X93439285Y-48651247D02*
X93344047Y-48603628D01*
X93344047Y-48603628D02*
X93153571Y-48556009D01*
X93153571Y-48556009D02*
X93058333Y-48508390D01*
X93058333Y-48508390D02*
X93010714Y-48460771D01*
X93010714Y-48460771D02*
X92963095Y-48365533D01*
X92963095Y-48365533D02*
X92963095Y-48270295D01*
X92963095Y-48270295D02*
X93010714Y-48175057D01*
X93010714Y-48175057D02*
X93058333Y-48127438D01*
X93058333Y-48127438D02*
X93153571Y-48079819D01*
X93153571Y-48079819D02*
X93391666Y-48079819D01*
X93391666Y-48079819D02*
X93534523Y-48127438D01*
X94534523Y-49079819D02*
X94201190Y-48603628D01*
X93963095Y-49079819D02*
X93963095Y-48079819D01*
X93963095Y-48079819D02*
X94344047Y-48079819D01*
X94344047Y-48079819D02*
X94439285Y-48127438D01*
X94439285Y-48127438D02*
X94486904Y-48175057D01*
X94486904Y-48175057D02*
X94534523Y-48270295D01*
X94534523Y-48270295D02*
X94534523Y-48413152D01*
X94534523Y-48413152D02*
X94486904Y-48508390D01*
X94486904Y-48508390D02*
X94439285Y-48556009D01*
X94439285Y-48556009D02*
X94344047Y-48603628D01*
X94344047Y-48603628D02*
X93963095Y-48603628D01*
X95391666Y-48413152D02*
X95391666Y-49079819D01*
X95153571Y-48032200D02*
X94915476Y-48746485D01*
X94915476Y-48746485D02*
X95534523Y-48746485D01*
X92963095Y-50782200D02*
X93105952Y-50829819D01*
X93105952Y-50829819D02*
X93344047Y-50829819D01*
X93344047Y-50829819D02*
X93439285Y-50782200D01*
X93439285Y-50782200D02*
X93486904Y-50734580D01*
X93486904Y-50734580D02*
X93534523Y-50639342D01*
X93534523Y-50639342D02*
X93534523Y-50544104D01*
X93534523Y-50544104D02*
X93486904Y-50448866D01*
X93486904Y-50448866D02*
X93439285Y-50401247D01*
X93439285Y-50401247D02*
X93344047Y-50353628D01*
X93344047Y-50353628D02*
X93153571Y-50306009D01*
X93153571Y-50306009D02*
X93058333Y-50258390D01*
X93058333Y-50258390D02*
X93010714Y-50210771D01*
X93010714Y-50210771D02*
X92963095Y-50115533D01*
X92963095Y-50115533D02*
X92963095Y-50020295D01*
X92963095Y-50020295D02*
X93010714Y-49925057D01*
X93010714Y-49925057D02*
X93058333Y-49877438D01*
X93058333Y-49877438D02*
X93153571Y-49829819D01*
X93153571Y-49829819D02*
X93391666Y-49829819D01*
X93391666Y-49829819D02*
X93534523Y-49877438D01*
X94534523Y-50829819D02*
X94201190Y-50353628D01*
X93963095Y-50829819D02*
X93963095Y-49829819D01*
X93963095Y-49829819D02*
X94344047Y-49829819D01*
X94344047Y-49829819D02*
X94439285Y-49877438D01*
X94439285Y-49877438D02*
X94486904Y-49925057D01*
X94486904Y-49925057D02*
X94534523Y-50020295D01*
X94534523Y-50020295D02*
X94534523Y-50163152D01*
X94534523Y-50163152D02*
X94486904Y-50258390D01*
X94486904Y-50258390D02*
X94439285Y-50306009D01*
X94439285Y-50306009D02*
X94344047Y-50353628D01*
X94344047Y-50353628D02*
X93963095Y-50353628D01*
X94867857Y-49829819D02*
X95486904Y-49829819D01*
X95486904Y-49829819D02*
X95153571Y-50210771D01*
X95153571Y-50210771D02*
X95296428Y-50210771D01*
X95296428Y-50210771D02*
X95391666Y-50258390D01*
X95391666Y-50258390D02*
X95439285Y-50306009D01*
X95439285Y-50306009D02*
X95486904Y-50401247D01*
X95486904Y-50401247D02*
X95486904Y-50639342D01*
X95486904Y-50639342D02*
X95439285Y-50734580D01*
X95439285Y-50734580D02*
X95391666Y-50782200D01*
X95391666Y-50782200D02*
X95296428Y-50829819D01*
X95296428Y-50829819D02*
X95010714Y-50829819D01*
X95010714Y-50829819D02*
X94915476Y-50782200D01*
X94915476Y-50782200D02*
X94867857Y-50734580D01*
X92963095Y-54282200D02*
X93105952Y-54329819D01*
X93105952Y-54329819D02*
X93344047Y-54329819D01*
X93344047Y-54329819D02*
X93439285Y-54282200D01*
X93439285Y-54282200D02*
X93486904Y-54234580D01*
X93486904Y-54234580D02*
X93534523Y-54139342D01*
X93534523Y-54139342D02*
X93534523Y-54044104D01*
X93534523Y-54044104D02*
X93486904Y-53948866D01*
X93486904Y-53948866D02*
X93439285Y-53901247D01*
X93439285Y-53901247D02*
X93344047Y-53853628D01*
X93344047Y-53853628D02*
X93153571Y-53806009D01*
X93153571Y-53806009D02*
X93058333Y-53758390D01*
X93058333Y-53758390D02*
X93010714Y-53710771D01*
X93010714Y-53710771D02*
X92963095Y-53615533D01*
X92963095Y-53615533D02*
X92963095Y-53520295D01*
X92963095Y-53520295D02*
X93010714Y-53425057D01*
X93010714Y-53425057D02*
X93058333Y-53377438D01*
X93058333Y-53377438D02*
X93153571Y-53329819D01*
X93153571Y-53329819D02*
X93391666Y-53329819D01*
X93391666Y-53329819D02*
X93534523Y-53377438D01*
X94534523Y-54329819D02*
X94201190Y-53853628D01*
X93963095Y-54329819D02*
X93963095Y-53329819D01*
X93963095Y-53329819D02*
X94344047Y-53329819D01*
X94344047Y-53329819D02*
X94439285Y-53377438D01*
X94439285Y-53377438D02*
X94486904Y-53425057D01*
X94486904Y-53425057D02*
X94534523Y-53520295D01*
X94534523Y-53520295D02*
X94534523Y-53663152D01*
X94534523Y-53663152D02*
X94486904Y-53758390D01*
X94486904Y-53758390D02*
X94439285Y-53806009D01*
X94439285Y-53806009D02*
X94344047Y-53853628D01*
X94344047Y-53853628D02*
X93963095Y-53853628D01*
X95486904Y-54329819D02*
X94915476Y-54329819D01*
X95201190Y-54329819D02*
X95201190Y-53329819D01*
X95201190Y-53329819D02*
X95105952Y-53472676D01*
X95105952Y-53472676D02*
X95010714Y-53567914D01*
X95010714Y-53567914D02*
X94915476Y-53615533D01*
X72100595Y-45532200D02*
X72243452Y-45579819D01*
X72243452Y-45579819D02*
X72481547Y-45579819D01*
X72481547Y-45579819D02*
X72576785Y-45532200D01*
X72576785Y-45532200D02*
X72624404Y-45484580D01*
X72624404Y-45484580D02*
X72672023Y-45389342D01*
X72672023Y-45389342D02*
X72672023Y-45294104D01*
X72672023Y-45294104D02*
X72624404Y-45198866D01*
X72624404Y-45198866D02*
X72576785Y-45151247D01*
X72576785Y-45151247D02*
X72481547Y-45103628D01*
X72481547Y-45103628D02*
X72291071Y-45056009D01*
X72291071Y-45056009D02*
X72195833Y-45008390D01*
X72195833Y-45008390D02*
X72148214Y-44960771D01*
X72148214Y-44960771D02*
X72100595Y-44865533D01*
X72100595Y-44865533D02*
X72100595Y-44770295D01*
X72100595Y-44770295D02*
X72148214Y-44675057D01*
X72148214Y-44675057D02*
X72195833Y-44627438D01*
X72195833Y-44627438D02*
X72291071Y-44579819D01*
X72291071Y-44579819D02*
X72529166Y-44579819D01*
X72529166Y-44579819D02*
X72672023Y-44627438D01*
X73672023Y-45484580D02*
X73624404Y-45532200D01*
X73624404Y-45532200D02*
X73481547Y-45579819D01*
X73481547Y-45579819D02*
X73386309Y-45579819D01*
X73386309Y-45579819D02*
X73243452Y-45532200D01*
X73243452Y-45532200D02*
X73148214Y-45436961D01*
X73148214Y-45436961D02*
X73100595Y-45341723D01*
X73100595Y-45341723D02*
X73052976Y-45151247D01*
X73052976Y-45151247D02*
X73052976Y-45008390D01*
X73052976Y-45008390D02*
X73100595Y-44817914D01*
X73100595Y-44817914D02*
X73148214Y-44722676D01*
X73148214Y-44722676D02*
X73243452Y-44627438D01*
X73243452Y-44627438D02*
X73386309Y-44579819D01*
X73386309Y-44579819D02*
X73481547Y-44579819D01*
X73481547Y-44579819D02*
X73624404Y-44627438D01*
X73624404Y-44627438D02*
X73672023Y-44675057D01*
X74052976Y-44675057D02*
X74100595Y-44627438D01*
X74100595Y-44627438D02*
X74195833Y-44579819D01*
X74195833Y-44579819D02*
X74433928Y-44579819D01*
X74433928Y-44579819D02*
X74529166Y-44627438D01*
X74529166Y-44627438D02*
X74576785Y-44675057D01*
X74576785Y-44675057D02*
X74624404Y-44770295D01*
X74624404Y-44770295D02*
X74624404Y-44865533D01*
X74624404Y-44865533D02*
X74576785Y-45008390D01*
X74576785Y-45008390D02*
X74005357Y-45579819D01*
X74005357Y-45579819D02*
X74624404Y-45579819D01*
X82364286Y-44804819D02*
X82364286Y-43804819D01*
X82364286Y-43804819D02*
X82697619Y-44519104D01*
X82697619Y-44519104D02*
X83030952Y-43804819D01*
X83030952Y-43804819D02*
X83030952Y-44804819D01*
X83459524Y-44757200D02*
X83602381Y-44804819D01*
X83602381Y-44804819D02*
X83840476Y-44804819D01*
X83840476Y-44804819D02*
X83935714Y-44757200D01*
X83935714Y-44757200D02*
X83983333Y-44709580D01*
X83983333Y-44709580D02*
X84030952Y-44614342D01*
X84030952Y-44614342D02*
X84030952Y-44519104D01*
X84030952Y-44519104D02*
X83983333Y-44423866D01*
X83983333Y-44423866D02*
X83935714Y-44376247D01*
X83935714Y-44376247D02*
X83840476Y-44328628D01*
X83840476Y-44328628D02*
X83650000Y-44281009D01*
X83650000Y-44281009D02*
X83554762Y-44233390D01*
X83554762Y-44233390D02*
X83507143Y-44185771D01*
X83507143Y-44185771D02*
X83459524Y-44090533D01*
X83459524Y-44090533D02*
X83459524Y-43995295D01*
X83459524Y-43995295D02*
X83507143Y-43900057D01*
X83507143Y-43900057D02*
X83554762Y-43852438D01*
X83554762Y-43852438D02*
X83650000Y-43804819D01*
X83650000Y-43804819D02*
X83888095Y-43804819D01*
X83888095Y-43804819D02*
X84030952Y-43852438D01*
X84459524Y-44804819D02*
X84459524Y-43804819D01*
X84459524Y-43804819D02*
X84697619Y-43804819D01*
X84697619Y-43804819D02*
X84840476Y-43852438D01*
X84840476Y-43852438D02*
X84935714Y-43947676D01*
X84935714Y-43947676D02*
X84983333Y-44042914D01*
X84983333Y-44042914D02*
X85030952Y-44233390D01*
X85030952Y-44233390D02*
X85030952Y-44376247D01*
X85030952Y-44376247D02*
X84983333Y-44566723D01*
X84983333Y-44566723D02*
X84935714Y-44661961D01*
X84935714Y-44661961D02*
X84840476Y-44757200D01*
X84840476Y-44757200D02*
X84697619Y-44804819D01*
X84697619Y-44804819D02*
X84459524Y-44804819D01*
X85983333Y-44804819D02*
X85411905Y-44804819D01*
X85697619Y-44804819D02*
X85697619Y-43804819D01*
X85697619Y-43804819D02*
X85602381Y-43947676D01*
X85602381Y-43947676D02*
X85507143Y-44042914D01*
X85507143Y-44042914D02*
X85411905Y-44090533D01*
%TO.C,SR2*%
D11*
X94317224Y-44342500D02*
X93807776Y-44342500D01*
X94317224Y-45387500D02*
X93807776Y-45387500D01*
%TO.C,SC1*%
X73216233Y-40615000D02*
X73508767Y-40615000D01*
X73216233Y-41635000D02*
X73508767Y-41635000D01*
%TO.C,DB1*%
X75935000Y-38745000D02*
X75935000Y-41505000D01*
X88745000Y-38745000D02*
X75935000Y-38745000D01*
X88745000Y-38745000D02*
X88745000Y-41505000D01*
X88745000Y-41505000D02*
X75935000Y-41505000D01*
X90015000Y-38745000D02*
X91395000Y-38745000D01*
X91395000Y-38745000D02*
X91395000Y-40125000D01*
%TO.C,SR4*%
X94317224Y-40852500D02*
X93807776Y-40852500D01*
X94317224Y-41897500D02*
X93807776Y-41897500D01*
%TO.C,SR3*%
X94317224Y-42602500D02*
X93807776Y-42602500D01*
X94317224Y-43647500D02*
X93807776Y-43647500D01*
%TO.C,SR1*%
X94317224Y-46102500D02*
X93807776Y-46102500D01*
X94317224Y-47147500D02*
X93807776Y-47147500D01*
%TO.C,SC2*%
X73216233Y-43125000D02*
X73508767Y-43125000D01*
X73216233Y-44145000D02*
X73508767Y-44145000D01*
%TO.C,MSD1*%
X77250000Y-45990000D02*
X77250000Y-49600000D01*
X77250000Y-51300000D02*
X77250000Y-56000000D01*
X77250000Y-57300000D02*
X77250000Y-59100000D01*
X77700000Y-45990000D02*
X77250000Y-45990000D01*
X78280000Y-62260000D02*
X78080000Y-62060000D01*
X78280000Y-62260000D02*
X80140000Y-62260000D01*
X80140000Y-62260000D02*
X80350000Y-62060000D01*
X80350000Y-61910000D02*
X80350000Y-62060000D01*
X80350000Y-61910000D02*
X86720000Y-61910000D01*
X87230000Y-62260000D02*
X86720000Y-61910000D01*
X89300000Y-45990000D02*
X91220000Y-45990000D01*
X89540000Y-62260000D02*
X87230000Y-62260000D01*
X89540000Y-62260000D02*
X89740000Y-62060000D01*
X89740000Y-62060000D02*
X90000000Y-62060000D01*
X91220000Y-45990000D02*
X91220000Y-60000000D01*
%TD*%
M02*
