%TF.GenerationSoftware,KiCad,Pcbnew,10.0.6*%
%TF.CreationDate,2026-10-10T17:28:04-04:00*%
%TF.ProjectId,esp32-wavplayer-final,65737033-322d-4776-9176-706c61796572,rev?*%
%TF.SameCoordinates,Original*%
%TF.FileFunction,Copper,L1,Top*%
%TF.FilePolarity,Positive*%
%FSLAX46Y46*%
G04 Gerber Fmt 4.6, Leading zero omitted, Abs format (unit mm)*
G04 Created by KiCad (PCBNEW 10.0.6) date 2026-10-10 17:28:04*
%MOMM*%
%LPD*%
G01*
G04 APERTURE LIST*
G04 Aperture macros list*
%AMRoundRect*
0 Rectangle with rounded corners*
0 $1 Rounding radius*
0 $2 $3 $4 $5 $6 $7 $8 $9 X,Y pos of 4 corners*
0 Add a 4 corners polygon primitive as box body*
4,1,4,$2,$3,$4,$5,$6,$7,$8,$9,$2,$3,0*
0 Add four circle primitives for the rounded corners*
1,1,$1+$1,$2,$3*
1,1,$1+$1,$4,$5*
1,1,$1+$1,$6,$7*
1,1,$1+$1,$8,$9*
0 Add four rect primitives between the rounded corners*
20,1,$1+$1,$2,$3,$4,$5,0*
20,1,$1+$1,$4,$5,$6,$7,0*
20,1,$1+$1,$6,$7,$8,$9,0*
20,1,$1+$1,$8,$9,$2,$3,0*%
G04 Aperture macros list end*
%TA.AperFunction,SMDPad,CuDef*%
%ADD10RoundRect,0.237500X0.250000X0.237500X-0.250000X0.237500X-0.250000X-0.237500X0.250000X-0.237500X0*%
%TD*%
%TA.AperFunction,SMDPad,CuDef*%
%ADD11RoundRect,0.237500X-0.300000X-0.237500X0.300000X-0.237500X0.300000X0.237500X-0.300000X0.237500X0*%
%TD*%
%TA.AperFunction,ComponentPad*%
%ADD12R,1.700000X1.700000*%
%TD*%
%TA.AperFunction,ComponentPad*%
%ADD13C,1.700000*%
%TD*%
%TA.AperFunction,SMDPad,CuDef*%
%ADD14R,0.700000X1.200000*%
%TD*%
%TA.AperFunction,SMDPad,CuDef*%
%ADD15R,1.000000X0.800000*%
%TD*%
%TA.AperFunction,SMDPad,CuDef*%
%ADD16R,1.000000X1.200000*%
%TD*%
%TA.AperFunction,SMDPad,CuDef*%
%ADD17R,1.000000X2.800000*%
%TD*%
%TA.AperFunction,SMDPad,CuDef*%
%ADD18R,1.300000X1.900000*%
%TD*%
%TA.AperFunction,ViaPad*%
%ADD19C,0.300000*%
%TD*%
%TA.AperFunction,Conductor*%
%ADD20C,0.200000*%
%TD*%
G04 APERTURE END LIST*
D10*
%TO.P,SR2,1*%
%TO.N,+3V3*%
X94975000Y-44865000D03*
%TO.P,SR2,2*%
%TO.N,/GPIO4*%
X93150000Y-44865000D03*
%TD*%
D11*
%TO.P,SC1,1*%
%TO.N,+3V3*%
X72500000Y-41125000D03*
%TO.P,SC1,2*%
%TO.N,Earth*%
X74225000Y-41125000D03*
%TD*%
D12*
%TO.P,DB1,1,Pin_1_1*%
%TO.N,+3V3*%
X90015000Y-40125000D03*
D13*
%TO.P,DB1,2,Pin_2_2*%
%TO.N,/GPIO7*%
X87475000Y-40125000D03*
%TO.P,DB1,3,Pin_3_3*%
%TO.N,/GPIO6*%
X84935000Y-40125000D03*
%TO.P,DB1,4,Pin_4_4*%
%TO.N,/GPIO4*%
X82395000Y-40125000D03*
%TO.P,DB1,5,Pin_5_5*%
%TO.N,/GPIO5*%
X79855000Y-40125000D03*
%TO.P,DB1,6,Pin_6_6*%
%TO.N,Earth*%
X77315000Y-40125000D03*
%TD*%
D10*
%TO.P,SR4,1*%
%TO.N,+3V3*%
X94975000Y-41375000D03*
%TO.P,SR4,2*%
%TO.N,/GPIO7*%
X93150000Y-41375000D03*
%TD*%
%TO.P,SR3,1*%
%TO.N,+3V3*%
X94975000Y-43125000D03*
%TO.P,SR3,2*%
%TO.N,/GPIO6*%
X93150000Y-43125000D03*
%TD*%
%TO.P,SR1,1*%
%TO.N,+3V3*%
X94975000Y-46625000D03*
%TO.P,SR1,2*%
%TO.N,/GPIO5*%
X93150000Y-46625000D03*
%TD*%
D11*
%TO.P,SC2,1*%
%TO.N,+3V3*%
X72500000Y-43635000D03*
%TO.P,SC2,2*%
%TO.N,Earth*%
X74225000Y-43635000D03*
%TD*%
D14*
%TO.P,MSD1,1,DAT2_1*%
%TO.N,unconnected-(MSD1-DAT2-Pad1)*%
X87000000Y-46150000D03*
%TO.P,MSD1,2,DAT3/CD_2*%
%TO.N,/GPIO7*%
X85900000Y-46150000D03*
%TO.P,MSD1,3,CMD_3*%
%TO.N,/GPIO6*%
X84800000Y-46150000D03*
%TO.P,MSD1,4,VDD_4*%
%TO.N,+3V3*%
X83700000Y-46150000D03*
%TO.P,MSD1,5,CLK_5*%
%TO.N,/GPIO4*%
X82600000Y-46150000D03*
%TO.P,MSD1,6,VSS_6*%
%TO.N,Earth*%
X81500000Y-46150000D03*
%TO.P,MSD1,7,DAT0_7*%
%TO.N,/GPIO5*%
X80400000Y-46150000D03*
%TO.P,MSD1,8,DAT1_8*%
%TO.N,unconnected-(MSD1-DAT1-Pad8)*%
X79300000Y-46150000D03*
%TO.P,MSD1,9,DET_9*%
%TO.N,unconnected-(MSD1-DET-Pad9)*%
X78350000Y-46150000D03*
D15*
%TO.P,MSD1,10*%
%TO.N,N/C*%
X77400000Y-56650000D03*
D16*
%TO.P,MSD1,SH,SHIELD_SH*%
%TO.N,unconnected-(MSD1-SHIELD-PadSH)*%
X77400000Y-50450000D03*
D17*
X77400000Y-60800000D03*
D16*
X88550000Y-46150000D03*
D18*
X90900000Y-61250000D03*
%TD*%
D19*
%TO.N,+3V3*%
X72475000Y-45625000D03*
X83700000Y-46150000D03*
%TO.N,Earth*%
X81500000Y-46150000D03*
%TD*%
%TO.N,+3V3*%
D20*
X94225000Y-40125000D02*
X90015000Y-40125000D01*
X94475000Y-40375000D02*
X94225000Y-40125000D01*
X72500000Y-45600000D02*
X72500000Y-43635000D01*
X72475000Y-45625000D02*
X72500000Y-45600000D01*
X72500000Y-41125000D02*
X72500000Y-43635000D01*
X94975000Y-46625000D02*
X94975000Y-40375000D01*
X94975000Y-40375000D02*
X94475000Y-40375000D01*
%TO.N,/GPIO4*%
X82825000Y-45125000D02*
X90395778Y-45125000D01*
X93150000Y-44865000D02*
X91962500Y-43677500D01*
X93937500Y-47091722D02*
X93937500Y-45652500D01*
X90395778Y-45125000D02*
X92670778Y-47400000D01*
X84645000Y-42375000D02*
X82395000Y-40125000D01*
X91962500Y-43677500D02*
X91962500Y-42375000D01*
X93629222Y-47400000D02*
X93937500Y-47091722D01*
X92670778Y-47400000D02*
X93629222Y-47400000D01*
X93937500Y-45652500D02*
X93150000Y-44865000D01*
X91962500Y-42375000D02*
X84645000Y-42375000D01*
X82600000Y-45350000D02*
X82825000Y-45125000D01*
X82600000Y-46150000D02*
X82600000Y-45350000D01*
%TO.N,Earth*%
X81475000Y-46125000D02*
X81500000Y-46150000D01*
X74225000Y-41125000D02*
X76315000Y-41125000D01*
X76315000Y-41125000D02*
X77315000Y-40125000D01*
X74225000Y-41125000D02*
X74225000Y-43635000D01*
%TO.N,/GPIO7*%
X93150000Y-41375000D02*
X88725000Y-41375000D01*
X85900000Y-46150000D02*
X85900000Y-46950000D01*
X86750000Y-47800000D02*
X95054222Y-47800000D01*
X94140685Y-38975000D02*
X88625000Y-38975000D01*
X88625000Y-38975000D02*
X87475000Y-40125000D01*
X88725000Y-41375000D02*
X87475000Y-40125000D01*
X95054222Y-47800000D02*
X95762500Y-47091722D01*
X95762500Y-40596815D02*
X94140685Y-38975000D01*
X95762500Y-47091722D02*
X95762500Y-40596815D01*
X85900000Y-46950000D02*
X86750000Y-47800000D01*
%TO.N,/GPIO6*%
X77850000Y-51700000D02*
X77850000Y-54691422D01*
X84800000Y-46950000D02*
X82200000Y-49550000D01*
X78705000Y-40601346D02*
X78705000Y-39648654D01*
X92128185Y-41975000D02*
X93150000Y-42996815D01*
X85871346Y-41975000D02*
X92128185Y-41975000D01*
X80000000Y-49550000D02*
X77850000Y-51700000D01*
X93150000Y-42996815D02*
X93150000Y-43125000D01*
X76958578Y-54750000D02*
X76600000Y-54391422D01*
X82200000Y-49550000D02*
X80000000Y-49550000D01*
X82871346Y-38975000D02*
X85871346Y-41975000D01*
X77791422Y-54750000D02*
X76958578Y-54750000D01*
X92362500Y-41775000D02*
X86585000Y-41775000D01*
X78705000Y-39648654D02*
X79378654Y-38975000D01*
X86585000Y-41775000D02*
X84935000Y-40125000D01*
X76600000Y-42706346D02*
X78705000Y-40601346D01*
X93150000Y-43125000D02*
X92362500Y-42337500D01*
X92362500Y-42337500D02*
X92362500Y-41775000D01*
X79378654Y-38975000D02*
X82871346Y-38975000D01*
X77850000Y-54691422D02*
X77791422Y-54750000D01*
X76600000Y-54391422D02*
X76600000Y-42706346D01*
X84800000Y-46150000D02*
X84800000Y-46950000D01*
%TO.N,/GPIO5*%
X82605000Y-42875000D02*
X81915000Y-42185000D01*
X81915000Y-42185000D02*
X79855000Y-40125000D01*
X93150000Y-46625000D02*
X91562500Y-45037500D01*
X91562500Y-42875000D02*
X82605000Y-42875000D01*
X80400000Y-46150000D02*
X80400000Y-43700000D01*
X80400000Y-43700000D02*
X81915000Y-42185000D01*
X91562500Y-45037500D02*
X91562500Y-42875000D01*
%TD*%
M02*
