%TF.GenerationSoftware,KiCad,Pcbnew,10.0.6*%
%TF.CreationDate,2026-10-07T16:09:31-04:00*%
%TF.ProjectId,esp32-wavplayer-final,65737033-322d-4776-9176-706c61796572,rev?*%
%TF.SameCoordinates,Original*%
%TF.FileFunction,Paste,Bot*%
%TF.FilePolarity,Positive*%
%FSLAX46Y46*%
G04 Gerber Fmt 4.6, Leading zero omitted, Abs format (unit mm)*
G04 Created by KiCad (PCBNEW 10.0.6) date 2026-10-07 16:09:31*
%MOMM*%
%LPD*%
G01*
G04 APERTURE LIST*
G04 Aperture macros list*
%AMRoundRect*
0 Rectangle with rounded corners*
0 $1 Rounding radius*
0 $2 $3 $4 $5 $6 $7 $8 $9 X,Y pos of 4 corners*
0 Add a 4 corners polygon primitive as box body*
4,1,4,$2,$3,$4,$5,$6,$7,$8,$9,$2,$3,0*
0 Add four circle primitives for the rounded corners*
1,1,$1+$1,$2,$3*
1,1,$1+$1,$4,$5*
1,1,$1+$1,$6,$7*
1,1,$1+$1,$8,$9*
0 Add four rect primitives between the rounded corners*
20,1,$1+$1,$2,$3,$4,$5,0*
20,1,$1+$1,$4,$5,$6,$7,0*
20,1,$1+$1,$6,$7,$8,$9,0*
20,1,$1+$1,$8,$9,$2,$3,0*%
G04 Aperture macros list end*
%ADD10RoundRect,0.237500X0.250000X0.237500X-0.250000X0.237500X-0.250000X-0.237500X0.250000X-0.237500X0*%
%ADD11RoundRect,0.237500X0.300000X0.237500X-0.300000X0.237500X-0.300000X-0.237500X0.300000X-0.237500X0*%
%ADD12RoundRect,0.150000X0.150000X-0.825000X0.150000X0.825000X-0.150000X0.825000X-0.150000X-0.825000X0*%
%ADD13RoundRect,0.237500X-0.250000X-0.237500X0.250000X-0.237500X0.250000X0.237500X-0.250000X0.237500X0*%
%ADD14RoundRect,0.237500X0.237500X-0.250000X0.237500X0.250000X-0.237500X0.250000X-0.237500X-0.250000X0*%
%ADD15RoundRect,0.150000X0.150000X-0.512500X0.150000X0.512500X-0.150000X0.512500X-0.150000X-0.512500X0*%
%ADD16RoundRect,0.150000X0.150000X0.575000X-0.150000X0.575000X-0.150000X-0.575000X0.150000X-0.575000X0*%
%ADD17RoundRect,0.075000X0.075000X0.650000X-0.075000X0.650000X-0.075000X-0.650000X0.075000X-0.650000X0*%
%ADD18RoundRect,0.150000X-0.150000X0.512500X-0.150000X-0.512500X0.150000X-0.512500X0.150000X0.512500X0*%
%ADD19RoundRect,0.237500X-0.237500X0.300000X-0.237500X-0.300000X0.237500X-0.300000X0.237500X0.300000X0*%
%ADD20RoundRect,0.237500X-0.237500X0.287500X-0.237500X-0.287500X0.237500X-0.287500X0.237500X0.287500X0*%
%ADD21RoundRect,0.237500X-0.237500X0.250000X-0.237500X-0.250000X0.237500X-0.250000X0.237500X0.250000X0*%
%ADD22RoundRect,0.237500X0.237500X-0.287500X0.237500X0.287500X-0.237500X0.287500X-0.237500X-0.287500X0*%
G04 APERTURE END LIST*
D10*
%TO.C,PR1*%
X31250000Y-119462500D03*
X33075000Y-119462500D03*
%TD*%
D11*
%TO.C,PC2*%
X26750000Y-113462500D03*
X28475000Y-113462500D03*
%TD*%
D12*
%TO.C,BTM1*%
X50810000Y-120012500D03*
X49540000Y-120012500D03*
X48270000Y-120012500D03*
X47000000Y-120012500D03*
X47000000Y-124962500D03*
X48270000Y-124962500D03*
X49540000Y-124962500D03*
X50810000Y-124962500D03*
%TD*%
D13*
%TO.C,PR2*%
X40500000Y-119462500D03*
X38675000Y-119462500D03*
%TD*%
D14*
%TO.C,PR3*%
X42000000Y-125212500D03*
X42000000Y-127037500D03*
%TD*%
D15*
%TO.C,BMFT1*%
X26000000Y-122187500D03*
X25050000Y-122187500D03*
X24100000Y-122187500D03*
X24100000Y-124462500D03*
X25050000Y-124462500D03*
X26000000Y-124462500D03*
%TD*%
D16*
%TO.C,USB1*%
X39070000Y-121617500D03*
X38270000Y-121617500D03*
D17*
X37570000Y-121617500D03*
X36570000Y-121617500D03*
X35070000Y-121617500D03*
X34070000Y-121617500D03*
D16*
X33370000Y-121617500D03*
X32570000Y-121617500D03*
X32570000Y-121617500D03*
X33370000Y-121617500D03*
D17*
X34570000Y-121617500D03*
X35570000Y-121617500D03*
X36070000Y-121617500D03*
X37070000Y-121617500D03*
D16*
X38270000Y-121617500D03*
X39070000Y-121617500D03*
%TD*%
D18*
%TO.C,BATPROT1*%
X27800000Y-124237500D03*
X28750000Y-124237500D03*
X29700000Y-124237500D03*
X29700000Y-121962500D03*
X28750000Y-121962500D03*
X27800000Y-121962500D03*
%TD*%
D19*
%TO.C,PC3*%
X43500000Y-128962500D03*
X43500000Y-127237500D03*
%TD*%
D15*
%TO.C,PDVR1*%
X28700000Y-115325000D03*
X26800000Y-115325000D03*
X26800000Y-117600000D03*
X27750000Y-117600000D03*
X28700000Y-117600000D03*
%TD*%
D20*
%TO.C,D5*%
X43750000Y-125462500D03*
X43750000Y-123712500D03*
%TD*%
D13*
%TO.C,PR7*%
X29750000Y-126212500D03*
X27925000Y-126212500D03*
%TD*%
D20*
%TO.C,D6*%
X43750000Y-121712500D03*
X43750000Y-119962500D03*
%TD*%
D21*
%TO.C,PR4*%
X45250000Y-121712500D03*
X45250000Y-119887500D03*
%TD*%
D22*
%TO.C,PD1*%
X42000000Y-121712500D03*
X42000000Y-123462500D03*
%TD*%
D11*
%TO.C,PC4*%
X27979235Y-127729061D03*
X29704235Y-127729061D03*
%TD*%
D21*
%TO.C,PR5*%
X45250000Y-125537500D03*
X45250000Y-123712500D03*
%TD*%
%TO.C,CR3*%
X37250000Y-118287500D03*
X37250000Y-116462500D03*
%TD*%
%TO.C,CR4*%
X35250000Y-118287500D03*
X35250000Y-116462500D03*
%TD*%
D19*
%TO.C,PC1*%
X25250000Y-117462500D03*
X25250000Y-115737500D03*
%TD*%
D21*
%TO.C,PR6*%
X45250000Y-128962500D03*
X45250000Y-127137500D03*
%TD*%
D10*
%TO.C,PR8*%
X27175000Y-120212500D03*
X29000000Y-120212500D03*
%TD*%
M02*
