%TF.GenerationSoftware,KiCad,Pcbnew,10.0.6*%
%TF.CreationDate,2026-10-07T16:09:31-04:00*%
%TF.ProjectId,esp32-wavplayer-final,65737033-322d-4776-9176-706c61796572,rev?*%
%TF.SameCoordinates,Original*%
%TF.FileFunction,Copper,L2,Bot*%
%TF.FilePolarity,Positive*%
%FSLAX46Y46*%
G04 Gerber Fmt 4.6, Leading zero omitted, Abs format (unit mm)*
G04 Created by KiCad (PCBNEW 10.0.6) date 2026-10-07 16:09:31*
%MOMM*%
%LPD*%
G01*
G04 APERTURE LIST*
G04 Aperture macros list*
%AMRoundRect*
0 Rectangle with rounded corners*
0 $1 Rounding radius*
0 $2 $3 $4 $5 $6 $7 $8 $9 X,Y pos of 4 corners*
0 Add a 4 corners polygon primitive as box body*
4,1,4,$2,$3,$4,$5,$6,$7,$8,$9,$2,$3,0*
0 Add four circle primitives for the rounded corners*
1,1,$1+$1,$2,$3*
1,1,$1+$1,$4,$5*
1,1,$1+$1,$6,$7*
1,1,$1+$1,$8,$9*
0 Add four rect primitives between the rounded corners*
20,1,$1+$1,$2,$3,$4,$5,0*
20,1,$1+$1,$4,$5,$6,$7,0*
20,1,$1+$1,$6,$7,$8,$9,0*
20,1,$1+$1,$8,$9,$2,$3,0*%
G04 Aperture macros list end*
%TA.AperFunction,SMDPad,CuDef*%
%ADD10RoundRect,0.237500X0.250000X0.237500X-0.250000X0.237500X-0.250000X-0.237500X0.250000X-0.237500X0*%
%TD*%
%TA.AperFunction,SMDPad,CuDef*%
%ADD11RoundRect,0.237500X0.300000X0.237500X-0.300000X0.237500X-0.300000X-0.237500X0.300000X-0.237500X0*%
%TD*%
%TA.AperFunction,SMDPad,CuDef*%
%ADD12RoundRect,0.150000X0.150000X-0.825000X0.150000X0.825000X-0.150000X0.825000X-0.150000X-0.825000X0*%
%TD*%
%TA.AperFunction,SMDPad,CuDef*%
%ADD13RoundRect,0.237500X-0.250000X-0.237500X0.250000X-0.237500X0.250000X0.237500X-0.250000X0.237500X0*%
%TD*%
%TA.AperFunction,SMDPad,CuDef*%
%ADD14RoundRect,0.237500X0.237500X-0.250000X0.237500X0.250000X-0.237500X0.250000X-0.237500X-0.250000X0*%
%TD*%
%TA.AperFunction,SMDPad,CuDef*%
%ADD15RoundRect,0.150000X0.150000X-0.512500X0.150000X0.512500X-0.150000X0.512500X-0.150000X-0.512500X0*%
%TD*%
%TA.AperFunction,ComponentPad*%
%ADD16O,1.000000X2.100000*%
%TD*%
%TA.AperFunction,ComponentPad*%
%ADD17O,1.000000X1.600000*%
%TD*%
%TA.AperFunction,SMDPad,CuDef*%
%ADD18RoundRect,0.150000X0.150000X0.575000X-0.150000X0.575000X-0.150000X-0.575000X0.150000X-0.575000X0*%
%TD*%
%TA.AperFunction,SMDPad,CuDef*%
%ADD19RoundRect,0.075000X0.075000X0.650000X-0.075000X0.650000X-0.075000X-0.650000X0.075000X-0.650000X0*%
%TD*%
%TA.AperFunction,SMDPad,CuDef*%
%ADD20RoundRect,0.150000X-0.150000X0.512500X-0.150000X-0.512500X0.150000X-0.512500X0.150000X0.512500X0*%
%TD*%
%TA.AperFunction,ComponentPad*%
%ADD21R,1.700000X1.700000*%
%TD*%
%TA.AperFunction,SMDPad,CuDef*%
%ADD22RoundRect,0.237500X-0.237500X0.300000X-0.237500X-0.300000X0.237500X-0.300000X0.237500X0.300000X0*%
%TD*%
%TA.AperFunction,SMDPad,CuDef*%
%ADD23RoundRect,0.237500X-0.237500X0.287500X-0.237500X-0.287500X0.237500X-0.287500X0.237500X0.287500X0*%
%TD*%
%TA.AperFunction,SMDPad,CuDef*%
%ADD24RoundRect,0.237500X-0.237500X0.250000X-0.237500X-0.250000X0.237500X-0.250000X0.237500X0.250000X0*%
%TD*%
%TA.AperFunction,SMDPad,CuDef*%
%ADD25RoundRect,0.237500X0.237500X-0.287500X0.237500X0.287500X-0.237500X0.287500X-0.237500X-0.287500X0*%
%TD*%
%TA.AperFunction,ComponentPad*%
%ADD26C,1.700000*%
%TD*%
%TA.AperFunction,ViaPad*%
%ADD27C,0.300000*%
%TD*%
%TA.AperFunction,ViaPad*%
%ADD28C,0.600000*%
%TD*%
%TA.AperFunction,Conductor*%
%ADD29C,0.200000*%
%TD*%
G04 APERTURE END LIST*
D10*
%TO.P,PR1,2*%
%TO.N,Earth*%
X31250000Y-119462500D03*
%TO.P,PR1,1*%
%TO.N,Net-(USB1-CC2)*%
X33075000Y-119462500D03*
%TD*%
D11*
%TO.P,PC2,2*%
%TO.N,Earth*%
X26750000Y-113462500D03*
%TO.P,PC2,1*%
%TO.N,+3V3*%
X28475000Y-113462500D03*
%TD*%
D12*
%TO.P,BTM1,8,CE_8*%
%TO.N,Net-(BTM1-CE)*%
X50810000Y-120012500D03*
%TO.P,BTM1,7,~{CHRG}_7*%
%TO.N,Net-(BTM1-~{CHRG})*%
X49540000Y-120012500D03*
%TO.P,BTM1,6,~{STDBY}_6*%
%TO.N,Net-(BTM1-~{STDBY})*%
X48270000Y-120012500D03*
%TO.P,BTM1,5,BAT_5*%
%TO.N,Net-(BTM1-BAT)*%
X47000000Y-120012500D03*
%TO.P,BTM1,4,V_{CC}_4*%
%TO.N,Net-(BTM1-CE)*%
X47000000Y-124962500D03*
%TO.P,BTM1,3,GND_3*%
%TO.N,Earth*%
X48270000Y-124962500D03*
%TO.P,BTM1,2,PROG_2*%
%TO.N,Net-(BTM1-PROG)*%
X49540000Y-124962500D03*
%TO.P,BTM1,1,TEMP_1*%
%TO.N,Earth*%
X50810000Y-124962500D03*
%TD*%
D13*
%TO.P,PR2,2*%
%TO.N,Earth*%
X40500000Y-119462500D03*
%TO.P,PR2,1*%
%TO.N,Net-(USB1-CC1)*%
X38675000Y-119462500D03*
%TD*%
D14*
%TO.P,PR3,2*%
%TO.N,/VSYS*%
X42000000Y-125212500D03*
%TO.P,PR3,1*%
%TO.N,Net-(BTM1-CE)*%
X42000000Y-127037500D03*
%TD*%
D15*
%TO.P,BMFT1,6,G1_6*%
%TO.N,Net-(BATPROT1-OC)*%
X26000000Y-122187500D03*
%TO.P,BMFT1,5,S1/D2_5*%
%TO.N,unconnected-(BMFT1-S1{slash}D2-Pad2)*%
X25050000Y-122187500D03*
%TO.P,BMFT1,4,G2_4*%
%TO.N,Net-(BATPROT1-OD)*%
X24100000Y-122187500D03*
%TO.P,BMFT1,3,S2_3*%
%TO.N,Net-(BATPROT1-GND)*%
X24100000Y-124462500D03*
%TO.P,BMFT1,2,S1/D2_2*%
%TO.N,unconnected-(BMFT1-S1{slash}D2-Pad2)_1*%
X25050000Y-124462500D03*
%TO.P,BMFT1,1,D1_1*%
%TO.N,Earth*%
X26000000Y-124462500D03*
%TD*%
D16*
%TO.P,USB1,SH,SHIELD_SH*%
%TO.N,unconnected-(USB1-SHIELD-PadSH)*%
X31500000Y-122532500D03*
D17*
X31500000Y-126712500D03*
D16*
X40140000Y-122532500D03*
D17*
X40140000Y-126712500D03*
D18*
%TO.P,USB1,B12,GND_B12*%
%TO.N,Earth*%
X39070000Y-121617500D03*
%TO.P,USB1,B9,VBUS_B9*%
%TO.N,Net-(PD1-A)*%
X38270000Y-121617500D03*
D19*
%TO.P,USB1,B8*%
%TO.N,N/C*%
X37570000Y-121617500D03*
%TO.P,USB1,B7,D-_B7*%
%TO.N,Net-(CR3-Pad2)*%
X36570000Y-121617500D03*
%TO.P,USB1,B6,D+_B6*%
%TO.N,Net-(CR4-Pad2)*%
X35070000Y-121617500D03*
%TO.P,USB1,B5,CC2_B5*%
%TO.N,Net-(USB1-CC2)*%
X34070000Y-121617500D03*
D18*
%TO.P,USB1,B4,VBUS_B4*%
%TO.N,Net-(PD1-A)*%
X33370000Y-121617500D03*
%TO.P,USB1,B1,GND_B1*%
%TO.N,Earth*%
X32570000Y-121617500D03*
%TO.P,USB1,A12,GND_A12*%
X32570000Y-121617500D03*
%TO.P,USB1,A9,VBUS_A9*%
%TO.N,Net-(PD1-A)*%
X33370000Y-121617500D03*
D19*
%TO.P,USB1,A8*%
%TO.N,N/C*%
X34570000Y-121617500D03*
%TO.P,USB1,A7,D-_A7*%
%TO.N,Net-(CR3-Pad2)*%
X35570000Y-121617500D03*
%TO.P,USB1,A6,D+_A6*%
%TO.N,Net-(CR4-Pad2)*%
X36070000Y-121617500D03*
%TO.P,USB1,A5,CC1_A5*%
%TO.N,Net-(USB1-CC1)*%
X37070000Y-121617500D03*
D18*
%TO.P,USB1,A4,VBUS_A4*%
%TO.N,Net-(PD1-A)*%
X38270000Y-121617500D03*
%TO.P,USB1,A1,GND_A1*%
%TO.N,Earth*%
X39070000Y-121617500D03*
%TD*%
D20*
%TO.P,BATPROT1,6,GND_6*%
%TO.N,Net-(BATPROT1-GND)*%
X27800000Y-124237500D03*
%TO.P,BATPROT1,5,VCC_5*%
%TO.N,Net-(BATPROT1-VCC)*%
X28750000Y-124237500D03*
%TO.P,BATPROT1,4,TD_4*%
%TO.N,unconnected-(BATPROT1-TD-Pad4)*%
X29700000Y-124237500D03*
%TO.P,BATPROT1,3,OC_3*%
%TO.N,Net-(BATPROT1-OC)*%
X29700000Y-121962500D03*
%TO.P,BATPROT1,2,CS_2*%
%TO.N,Net-(BATPROT1-CS)*%
X28750000Y-121962500D03*
%TO.P,BATPROT1,1,OD_1*%
%TO.N,Net-(BATPROT1-OD)*%
X27800000Y-121962500D03*
%TD*%
D21*
%TO.P,-,1,Pin_1_1*%
%TO.N,Net-(BATPROT1-GND)*%
X40250000Y-116212500D03*
%TD*%
D22*
%TO.P,PC3,2*%
%TO.N,Earth*%
X43500000Y-128962500D03*
%TO.P,PC3,1*%
%TO.N,Net-(BTM1-CE)*%
X43500000Y-127237500D03*
%TD*%
D15*
%TO.P,PDVR1,5,V_{OUT}_5*%
%TO.N,+3V3*%
X28700000Y-115325000D03*
%TO.P,PDVR1,4,NC_4*%
%TO.N,unconnected-(PDVR1-NC-Pad4)*%
X26800000Y-115325000D03*
%TO.P,PDVR1,3,CE_3*%
%TO.N,Net-(BTM1-BAT)*%
X26800000Y-117600000D03*
%TO.P,PDVR1,2,V_{SS}_2*%
%TO.N,Earth*%
X27750000Y-117600000D03*
%TO.P,PDVR1,1,V_{IN}_1*%
%TO.N,Net-(BTM1-BAT)*%
X28700000Y-117600000D03*
%TD*%
D23*
%TO.P,D5,2,A_2*%
%TO.N,Net-(BTM1-CE)*%
X43750000Y-125462500D03*
%TO.P,D5,1,K_1*%
%TO.N,Net-(D5-K)*%
X43750000Y-123712500D03*
%TD*%
D13*
%TO.P,PR7,2*%
%TO.N,Net-(BTM1-BAT)*%
X29750000Y-126212500D03*
%TO.P,PR7,1*%
%TO.N,Net-(BATPROT1-VCC)*%
X27925000Y-126212500D03*
%TD*%
D23*
%TO.P,D6,2,A_2*%
%TO.N,Net-(BTM1-CE)*%
X43750000Y-121712500D03*
%TO.P,D6,1,K_1*%
%TO.N,Net-(D6-K)*%
X43750000Y-119962500D03*
%TD*%
D24*
%TO.P,PR4,2*%
%TO.N,Net-(BTM1-~{STDBY})*%
X45250000Y-121712500D03*
%TO.P,PR4,1*%
%TO.N,Net-(D6-K)*%
X45250000Y-119887500D03*
%TD*%
D25*
%TO.P,PD1,2,A_2*%
%TO.N,Net-(PD1-A)*%
X42000000Y-121712500D03*
%TO.P,PD1,1,K_1*%
%TO.N,/VSYS*%
X42000000Y-123462500D03*
%TD*%
D11*
%TO.P,PC4,2*%
%TO.N,Net-(BATPROT1-GND)*%
X27979235Y-127729061D03*
%TO.P,PC4,1*%
%TO.N,Net-(BTM1-BAT)*%
X29704235Y-127729061D03*
%TD*%
D24*
%TO.P,PR5,2*%
%TO.N,Net-(BTM1-~{CHRG})*%
X45250000Y-125537500D03*
%TO.P,PR5,1*%
%TO.N,Net-(D5-K)*%
X45250000Y-123712500D03*
%TD*%
%TO.P,CR3,2*%
%TO.N,Net-(CR3-Pad2)*%
X37250000Y-118287500D03*
%TO.P,CR3,1*%
%TO.N,/GPIO19{slash}USB_D-*%
X37250000Y-116462500D03*
%TD*%
%TO.P,CR4,2*%
%TO.N,Net-(CR4-Pad2)*%
X35250000Y-118287500D03*
%TO.P,CR4,1*%
%TO.N,/GPIO18{slash}USB_D+*%
X35250000Y-116462500D03*
%TD*%
D21*
%TO.P,+,1,Pin_1_1*%
%TO.N,Net-(BTM1-BAT)*%
X31750000Y-116212500D03*
%TD*%
D22*
%TO.P,PC1,2*%
%TO.N,Earth*%
X25250000Y-117462500D03*
%TO.P,PC1,1*%
%TO.N,Net-(BTM1-BAT)*%
X25250000Y-115737500D03*
%TD*%
D24*
%TO.P,PR6,2*%
%TO.N,Earth*%
X45250000Y-128962500D03*
%TO.P,PR6,1*%
%TO.N,Net-(BTM1-PROG)*%
X45250000Y-127137500D03*
%TD*%
D10*
%TO.P,PR8,2*%
%TO.N,Earth*%
X27175000Y-120212500D03*
%TO.P,PR8,1*%
%TO.N,Net-(BATPROT1-CS)*%
X29000000Y-120212500D03*
%TD*%
D21*
%TO.P,J3,1,Pin_1_1*%
%TO.N,+3V3*%
X36250000Y-113000000D03*
%TD*%
D26*
%TO.P,REF\u002A\u002A,2*%
%TO.N,/GPIO19{slash}USB_D-*%
X46643750Y-112771250D03*
D21*
%TO.P,REF\u002A\u002A,1*%
%TO.N,/GPIO18{slash}USB_D+*%
X44103750Y-112771250D03*
%TD*%
D27*
%TO.N,Net-(BATPROT1-GND)*%
X27979235Y-127729061D03*
D28*
%TO.N,Earth*%
X30900000Y-123962500D03*
X26537500Y-126640578D03*
%TD*%
%TO.N,Earth*%
D29*
X50509999Y-123687500D02*
X50810000Y-123987501D01*
X50810000Y-123987501D02*
X50810000Y-124962500D01*
%TO.N,Net-(USB1-CC2)*%
X34070000Y-120457500D02*
X34070000Y-121617500D01*
X33075000Y-119462500D02*
X34070000Y-120457500D01*
%TO.N,Net-(USB1-CC1)*%
X38187500Y-119462500D02*
X37070000Y-120580000D01*
X37070000Y-120580000D02*
X37070000Y-121617500D01*
X38675000Y-119462500D02*
X38187500Y-119462500D01*
%TO.N,Net-(BATPROT1-OC)*%
X25987500Y-122175000D02*
X26000000Y-122187500D01*
X29787500Y-121875000D02*
X29787500Y-119745778D01*
X25987500Y-119381263D02*
X25987500Y-122175000D01*
X29700000Y-121962500D02*
X29787500Y-121875000D01*
X26331262Y-119037500D02*
X25987500Y-119381263D01*
X29787500Y-119745778D02*
X29079222Y-119037500D01*
X29079222Y-119037500D02*
X26331262Y-119037500D01*
%TO.N,Net-(BATPROT1-OD)*%
X26600000Y-121484448D02*
X26600000Y-122890552D01*
X28099999Y-121662501D02*
X28099999Y-119883277D01*
X26496948Y-119437500D02*
X26387500Y-119546948D01*
X28099999Y-119883277D02*
X27654222Y-119437500D01*
X26387500Y-119546948D02*
X26387500Y-121271948D01*
X27800000Y-121962500D02*
X28099999Y-121662501D01*
X24100000Y-122562500D02*
X24100000Y-122187500D01*
X27654222Y-119437500D02*
X26496948Y-119437500D01*
X26387500Y-121271948D02*
X26600000Y-121484448D01*
X24750000Y-123212500D02*
X24100000Y-122562500D01*
X26600000Y-122890552D02*
X26278052Y-123212500D01*
X26278052Y-123212500D02*
X24750000Y-123212500D01*
%TO.N,Net-(BATPROT1-VCC)*%
X28750000Y-125387500D02*
X28750000Y-124237500D01*
X27925000Y-126212500D02*
X28750000Y-125387500D01*
%TO.N,Net-(BTM1-CE)*%
X46612499Y-126325000D02*
X43637500Y-126325000D01*
X43500000Y-127237500D02*
X43500000Y-126462500D01*
X43637500Y-126325000D02*
X43500000Y-126462500D01*
X50810000Y-120358052D02*
X47000000Y-124168052D01*
X43300000Y-127037500D02*
X43500000Y-127237500D01*
X47000000Y-124962500D02*
X47000000Y-125937499D01*
X42975000Y-122487500D02*
X43750000Y-121712500D01*
X47000000Y-125937499D02*
X46612499Y-126325000D01*
X42975000Y-124687500D02*
X42975000Y-122487500D01*
X47000000Y-124168052D02*
X47000000Y-124962500D01*
X42000000Y-127037500D02*
X43300000Y-127037500D01*
X43750000Y-125462500D02*
X42975000Y-124687500D01*
X43500000Y-126462500D02*
X43500000Y-125712500D01*
X43500000Y-125712500D02*
X43750000Y-125462500D01*
%TO.N,Net-(BTM1-~{STDBY})*%
X47544999Y-121712500D02*
X48270000Y-120987499D01*
X48270000Y-120987499D02*
X48270000Y-120012500D01*
X45250000Y-121712500D02*
X47544999Y-121712500D01*
%TO.N,Net-(D6-K)*%
X45175000Y-119962500D02*
X45250000Y-119887500D01*
X43750000Y-119962500D02*
X45175000Y-119962500D01*
%TO.N,Net-(PD1-A)*%
X33370000Y-122342499D02*
X34490001Y-123462500D01*
X40979222Y-118687500D02*
X40020778Y-118687500D01*
X42000000Y-119708278D02*
X40979222Y-118687500D01*
X38570001Y-120592500D02*
X38270000Y-120892501D01*
X42000000Y-121712500D02*
X42000000Y-119708278D01*
X38270000Y-122547906D02*
X38270000Y-121617500D01*
X37355406Y-123462500D02*
X38270000Y-122547906D01*
X34490001Y-123462500D02*
X37355406Y-123462500D01*
X39410552Y-120592500D02*
X38570001Y-120592500D01*
X39469933Y-120533119D02*
X39410552Y-120592500D01*
X39469933Y-119238345D02*
X39469933Y-120533119D01*
X40020778Y-118687500D02*
X39469933Y-119238345D01*
X33370000Y-121617500D02*
X33370000Y-122342499D01*
X38270000Y-120892501D02*
X38270000Y-121617500D01*
%TO.N,Net-(BATPROT1-GND)*%
X26704062Y-127729061D02*
X27979235Y-127729061D01*
X24100000Y-125124999D02*
X26704062Y-127729061D01*
X27087500Y-124950000D02*
X27137500Y-124900000D01*
X27137500Y-126887326D02*
X27137500Y-124900000D01*
X27137500Y-124900000D02*
X27800000Y-124237500D01*
X24100000Y-124462500D02*
X24100000Y-124062500D01*
X27979235Y-127729061D02*
X27137500Y-126887326D01*
X24100000Y-124062500D02*
X23962634Y-123925134D01*
X24100000Y-124462500D02*
X24100000Y-125124999D01*
%TO.N,Net-(BTM1-~{CHRG})*%
X45250000Y-125096948D02*
X49540000Y-120806948D01*
X45250000Y-125537500D02*
X45250000Y-125096948D01*
X49540000Y-120806948D02*
X49540000Y-120012500D01*
%TO.N,Net-(D5-K)*%
X43750000Y-123712500D02*
X45250000Y-123712500D01*
%TO.N,Net-(CR3-Pad2)*%
X36302410Y-122642500D02*
X36570000Y-122374910D01*
X35570000Y-122374910D02*
X35837590Y-122642500D01*
X36570000Y-121617500D02*
X36570000Y-120392500D01*
X35837590Y-122642500D02*
X36302410Y-122642500D01*
X37250000Y-119712500D02*
X37250000Y-118287500D01*
X36570000Y-122374910D02*
X36570000Y-121617500D01*
X36570000Y-120392500D02*
X37250000Y-119712500D01*
X35570000Y-121617500D02*
X35570000Y-122374910D01*
%TO.N,Net-(CR4-Pad2)*%
X35250000Y-119462500D02*
X35250000Y-118287500D01*
X35070000Y-121617500D02*
X35070000Y-120860090D01*
X35070000Y-120860090D02*
X35337590Y-120592500D01*
X35802410Y-120592500D02*
X36070000Y-120860090D01*
X36070000Y-120860090D02*
X36070000Y-121617500D01*
X35337590Y-120592500D02*
X35802410Y-120592500D01*
X36070000Y-121617500D02*
X36070000Y-120282500D01*
X36070000Y-120282500D02*
X35250000Y-119462500D01*
%TO.N,Net-(BATPROT1-CS)*%
X29000000Y-120322110D02*
X29000000Y-121712500D01*
X29000000Y-121712500D02*
X28750000Y-121962500D01*
%TO.N,Net-(BTM1-BAT)*%
X29704235Y-126258265D02*
X29750000Y-126212500D01*
X28700000Y-117600000D02*
X30087500Y-116212500D01*
X26800000Y-117600000D02*
X26800000Y-116937501D01*
X26800000Y-117600000D02*
X25250000Y-116050000D01*
X31750000Y-116212500D02*
X33037500Y-117500000D01*
X46125000Y-120887500D02*
X47000000Y-120012500D01*
X43175000Y-120887500D02*
X46125000Y-120887500D01*
X29704235Y-127729061D02*
X29704235Y-126258265D01*
%TO.N,Net-(BTM1-PROG)*%
X45250000Y-127137500D02*
X48339999Y-127137500D01*
X48339999Y-127137500D02*
X49540000Y-125937499D01*
X49540000Y-125937499D02*
X49540000Y-124962500D01*
%TO.N,/VSYS*%
X42000000Y-123462500D02*
X42000000Y-125212500D01*
%TO.N,/GPIO19{slash}USB_D-*%
X37250000Y-116462500D02*
X38650000Y-115062500D01*
X44352500Y-115062500D02*
X46643750Y-112771250D01*
X38650000Y-115062500D02*
X44352500Y-115062500D01*
%TO.N,/GPIO18{slash}USB_D+*%
X35250000Y-116462500D02*
X38941250Y-112771250D01*
X38941250Y-112771250D02*
X44103750Y-112771250D01*
%TO.N,Earth*%
X31168629Y-121182500D02*
X30700000Y-121651129D01*
X40000000Y-120687500D02*
X40000000Y-119962500D01*
X40500000Y-123962500D02*
X40940000Y-123522500D01*
X32570000Y-121617500D02*
X32135000Y-121182500D01*
X24475000Y-115208278D02*
X24475000Y-116687500D01*
X26220778Y-113462500D02*
X24475000Y-115208278D01*
X43500000Y-128962500D02*
X42670778Y-128962500D01*
X25250000Y-118462500D02*
X25795289Y-119007789D01*
X47784999Y-128962500D02*
X50810000Y-125937499D01*
X26750000Y-113462500D02*
X26220778Y-113462500D01*
X25250000Y-117462500D02*
X25250000Y-118462500D01*
X26537500Y-126640578D02*
X26000000Y-126103078D01*
X27750000Y-117600000D02*
X27750000Y-118262499D01*
X40940000Y-121651129D02*
X40471371Y-121182500D01*
X48270000Y-123987501D02*
X48570001Y-123687500D01*
%TO.N,Net-(BTM1-BAT)*%
X31750000Y-116212500D02*
X30300000Y-117662500D01*
X28090552Y-116637500D02*
X28700000Y-117246948D01*
X27100001Y-116637500D02*
X28090552Y-116637500D01*
X30300000Y-125662500D02*
X29750000Y-126212500D01*
X42975000Y-120687500D02*
X43175000Y-120887500D01*
X42975000Y-119445778D02*
X42975000Y-120687500D01*
X30300000Y-117662500D02*
X30300000Y-125662500D01*
X30087500Y-116212500D02*
X31750000Y-116212500D01*
X25250000Y-116050000D02*
X25250000Y-115737500D01*
X28700000Y-117246948D02*
X28700000Y-117600000D01*
X41029222Y-117500000D02*
X42975000Y-119445778D01*
X26800000Y-116937501D02*
X27100001Y-116637500D01*
X33037500Y-117500000D02*
X41029222Y-117500000D01*
%TO.N,+3V3*%
X28475000Y-113462500D02*
X35787500Y-113462500D01*
X28700000Y-115325000D02*
X28700000Y-113687500D01*
X35787500Y-113462500D02*
X36250000Y-113000000D01*
X28700000Y-113687500D02*
X28475000Y-113462500D01*
%TO.N,Earth*%
X26000000Y-126103078D02*
X26000000Y-124462500D01*
X31750000Y-119462500D02*
X31250000Y-119462500D01*
X39070000Y-121617500D02*
X40000000Y-120687500D01*
X25795289Y-119007789D02*
X23500000Y-121303077D01*
X31500000Y-123962500D02*
X40500000Y-123962500D01*
X26838509Y-128504061D02*
X30260190Y-128504061D01*
X24475000Y-116687500D02*
X25250000Y-117462500D01*
X48270000Y-124962500D02*
X48270000Y-123987501D01*
X44750000Y-128962500D02*
X43500000Y-128962500D01*
X39505000Y-121182500D02*
X39070000Y-121617500D01*
X30700000Y-123413871D02*
X31248629Y-123962500D01*
X30700000Y-128064251D02*
X30700000Y-124762500D01*
X44750000Y-128962500D02*
X47784999Y-128962500D01*
X32570000Y-121617500D02*
X32570000Y-120282500D01*
X45250000Y-128962500D02*
X44750000Y-128962500D01*
X30700000Y-121651129D02*
X30700000Y-123413871D01*
X32570000Y-120282500D02*
X31750000Y-119462500D01*
X42670778Y-128962500D02*
X40940000Y-127231722D01*
X30260190Y-128504061D02*
X30700000Y-128064251D01*
X40471371Y-121182500D02*
X39505000Y-121182500D01*
X23500000Y-125165552D02*
X26838509Y-128504061D01*
X27750000Y-118262499D02*
X27374999Y-118637500D01*
X23500000Y-125165552D02*
X23500000Y-121303077D01*
X30700000Y-124762500D02*
X31500000Y-123962500D01*
X26250000Y-124462500D02*
X26000000Y-124462500D01*
X32135000Y-121182500D02*
X31168629Y-121182500D01*
X40940000Y-123522500D02*
X40940000Y-121651129D01*
X31248629Y-123962500D02*
X30900000Y-123962500D01*
X31248629Y-123962500D02*
X31500000Y-123962500D01*
X27175000Y-120322110D02*
X27175000Y-123537500D01*
X27175000Y-123537500D02*
X26250000Y-124462500D01*
X27374999Y-118637500D02*
X26165576Y-118637501D01*
X40000000Y-119962500D02*
X40500000Y-119462500D01*
X40940000Y-124402500D02*
X40500000Y-123962500D01*
X48570001Y-123687500D02*
X50509999Y-123687500D01*
X26165576Y-118637501D02*
X25795289Y-119007789D01*
X40940000Y-127231722D02*
X40940000Y-124402500D01*
%TD*%
M02*
