%TF.GenerationSoftware,KiCad,Pcbnew,10.0.6*%
%TF.CreationDate,2026-10-10T18:01:06-04:00*%
%TF.ProjectId,esp32-wavplayer-final,65737033-322d-4776-9176-706c61796572,rev?*%
%TF.SameCoordinates,Original*%
%TF.FileFunction,Paste,Bot*%
%TF.FilePolarity,Positive*%
%FSLAX46Y46*%
G04 Gerber Fmt 4.6, Leading zero omitted, Abs format (unit mm)*
G04 Created by KiCad (PCBNEW 10.0.6) date 2026-10-10 18:01:06*
%MOMM*%
%LPD*%
G01*
G04 APERTURE LIST*
G04 Aperture macros list*
%AMRoundRect*
0 Rectangle with rounded corners*
0 $1 Rounding radius*
0 $2 $3 $4 $5 $6 $7 $8 $9 X,Y pos of 4 corners*
0 Add a 4 corners polygon primitive as box body*
4,1,4,$2,$3,$4,$5,$6,$7,$8,$9,$2,$3,0*
0 Add four circle primitives for the rounded corners*
1,1,$1+$1,$2,$3*
1,1,$1+$1,$4,$5*
1,1,$1+$1,$6,$7*
1,1,$1+$1,$8,$9*
0 Add four rect primitives between the rounded corners*
20,1,$1+$1,$2,$3,$4,$5,0*
20,1,$1+$1,$4,$5,$6,$7,0*
20,1,$1+$1,$6,$7,$8,$9,0*
20,1,$1+$1,$8,$9,$2,$3,0*%
G04 Aperture macros list end*
%ADD10RoundRect,0.237500X-0.300000X-0.237500X0.300000X-0.237500X0.300000X0.237500X-0.300000X0.237500X0*%
%ADD11RoundRect,0.237500X0.237500X-0.300000X0.237500X0.300000X-0.237500X0.300000X-0.237500X-0.300000X0*%
%ADD12RoundRect,0.237500X0.300000X0.237500X-0.300000X0.237500X-0.300000X-0.237500X0.300000X-0.237500X0*%
%ADD13RoundRect,0.237500X-0.237500X0.300000X-0.237500X-0.300000X0.237500X-0.300000X0.237500X0.300000X0*%
%ADD14RoundRect,0.250000X-0.300000X0.400000X-0.300000X-0.400000X0.300000X-0.400000X0.300000X0.400000X0*%
%ADD15RoundRect,0.232500X-0.232500X0.232500X-0.232500X-0.232500X0.232500X-0.232500X0.232500X0.232500X0*%
%ADD16RoundRect,0.062500X-0.062500X0.375000X-0.062500X-0.375000X0.062500X-0.375000X0.062500X0.375000X0*%
%ADD17RoundRect,0.062500X-0.375000X0.062500X-0.375000X-0.062500X0.375000X-0.062500X0.375000X0.062500X0*%
%ADD18RoundRect,0.237500X-0.250000X-0.237500X0.250000X-0.237500X0.250000X0.237500X-0.250000X0.237500X0*%
%ADD19RoundRect,0.237500X0.237500X-0.250000X0.237500X0.250000X-0.237500X0.250000X-0.237500X-0.250000X0*%
G04 APERTURE END LIST*
D10*
%TO.C,CC8*%
X82507500Y-72760000D03*
X80782500Y-72760000D03*
%TD*%
%TO.C,CC9*%
X80782500Y-71250000D03*
X82507500Y-71250000D03*
%TD*%
D11*
%TO.C,CC4*%
X79782500Y-62475000D03*
X79782500Y-60750000D03*
%TD*%
D12*
%TO.C,CC2*%
X75032500Y-66250000D03*
X73307500Y-66250000D03*
%TD*%
D13*
%TO.C,OC2*%
X70782500Y-69525000D03*
X70782500Y-71250000D03*
%TD*%
D12*
%TO.C,CC1*%
X75032500Y-64750000D03*
X73307500Y-64750000D03*
%TD*%
D14*
%TO.C,CYOC1*%
X74182500Y-68900000D03*
X74182500Y-71000000D03*
X72532500Y-71000000D03*
X72532500Y-68900000D03*
%TD*%
D11*
%TO.C,CC6*%
X76782500Y-62475000D03*
X76782500Y-60750000D03*
%TD*%
%TO.C,CC5*%
X78282500Y-62475000D03*
X78282500Y-60750000D03*
%TD*%
D15*
%TO.C,CPU1*%
X80657500Y-65382500D03*
X79507500Y-65382500D03*
X78357500Y-65382500D03*
X80657500Y-66532500D03*
X79507500Y-66532500D03*
X78357500Y-66532500D03*
X80657500Y-67682500D03*
X79507500Y-67682500D03*
X78357500Y-67682500D03*
D16*
X77757500Y-64095000D03*
X78257500Y-64095000D03*
X78757500Y-64095000D03*
X79257500Y-64095000D03*
X79757500Y-64095000D03*
X80257500Y-64095000D03*
X80757500Y-64095000D03*
X81257500Y-64095000D03*
D17*
X81945000Y-64782500D03*
X81945000Y-65282500D03*
X81945000Y-65782500D03*
X81945000Y-66282500D03*
X81945000Y-66782500D03*
X81945000Y-67282500D03*
X81945000Y-67782500D03*
X81945000Y-68282500D03*
D16*
X81257500Y-68970000D03*
X80757500Y-68970000D03*
X80257500Y-68970000D03*
X79757500Y-68970000D03*
X79257500Y-68970000D03*
X78757500Y-68970000D03*
X78257500Y-68970000D03*
X77757500Y-68970000D03*
D17*
X77070000Y-68282500D03*
X77070000Y-67782500D03*
X77070000Y-67282500D03*
X77070000Y-66782500D03*
X77070000Y-66282500D03*
X77070000Y-65782500D03*
X77070000Y-65282500D03*
X77070000Y-64782500D03*
%TD*%
D18*
%TO.C,CR1*%
X83532500Y-67250000D03*
X85357500Y-67250000D03*
%TD*%
D12*
%TO.C,CC3*%
X85507500Y-65750000D03*
X83782500Y-65750000D03*
%TD*%
D13*
%TO.C,OC3*%
X76032500Y-70000000D03*
X76032500Y-71725000D03*
%TD*%
D19*
%TO.C,CR2*%
X81282500Y-62575000D03*
X81282500Y-60750000D03*
%TD*%
D10*
%TO.C,CC7*%
X83057500Y-69750000D03*
X84782500Y-69750000D03*
%TD*%
M02*
