%TF.GenerationSoftware,KiCad,Pcbnew,10.0.6*%
%TF.CreationDate,2026-10-10T18:01:05-04:00*%
%TF.ProjectId,esp32-wavplayer-final,65737033-322d-4776-9176-706c61796572,rev?*%
%TF.SameCoordinates,Original*%
%TF.FileFunction,Copper,L2,Bot*%
%TF.FilePolarity,Positive*%
%FSLAX46Y46*%
G04 Gerber Fmt 4.6, Leading zero omitted, Abs format (unit mm)*
G04 Created by KiCad (PCBNEW 10.0.6) date 2026-10-10 18:01:05*
%MOMM*%
%LPD*%
G01*
G04 APERTURE LIST*
G04 Aperture macros list*
%AMRoundRect*
0 Rectangle with rounded corners*
0 $1 Rounding radius*
0 $2 $3 $4 $5 $6 $7 $8 $9 X,Y pos of 4 corners*
0 Add a 4 corners polygon primitive as box body*
4,1,4,$2,$3,$4,$5,$6,$7,$8,$9,$2,$3,0*
0 Add four circle primitives for the rounded corners*
1,1,$1+$1,$2,$3*
1,1,$1+$1,$4,$5*
1,1,$1+$1,$6,$7*
1,1,$1+$1,$8,$9*
0 Add four rect primitives between the rounded corners*
20,1,$1+$1,$2,$3,$4,$5,0*
20,1,$1+$1,$4,$5,$6,$7,0*
20,1,$1+$1,$6,$7,$8,$9,0*
20,1,$1+$1,$8,$9,$2,$3,0*%
G04 Aperture macros list end*
%TA.AperFunction,SMDPad,CuDef*%
%ADD10RoundRect,0.237500X-0.300000X-0.237500X0.300000X-0.237500X0.300000X0.237500X-0.300000X0.237500X0*%
%TD*%
%TA.AperFunction,ComponentPad*%
%ADD11R,1.700000X1.700000*%
%TD*%
%TA.AperFunction,ComponentPad*%
%ADD12C,1.700000*%
%TD*%
%TA.AperFunction,SMDPad,CuDef*%
%ADD13RoundRect,0.237500X0.237500X-0.300000X0.237500X0.300000X-0.237500X0.300000X-0.237500X-0.300000X0*%
%TD*%
%TA.AperFunction,SMDPad,CuDef*%
%ADD14RoundRect,0.237500X0.300000X0.237500X-0.300000X0.237500X-0.300000X-0.237500X0.300000X-0.237500X0*%
%TD*%
%TA.AperFunction,SMDPad,CuDef*%
%ADD15RoundRect,0.237500X-0.237500X0.300000X-0.237500X-0.300000X0.237500X-0.300000X0.237500X0.300000X0*%
%TD*%
%TA.AperFunction,SMDPad,CuDef*%
%ADD16RoundRect,0.250000X-0.300000X0.400000X-0.300000X-0.400000X0.300000X-0.400000X0.300000X0.400000X0*%
%TD*%
%TA.AperFunction,SMDPad,CuDef*%
%ADD17RoundRect,0.062500X-0.062500X0.375000X-0.062500X-0.375000X0.062500X-0.375000X0.062500X0.375000X0*%
%TD*%
%TA.AperFunction,SMDPad,CuDef*%
%ADD18RoundRect,0.062500X-0.375000X0.062500X-0.375000X-0.062500X0.375000X-0.062500X0.375000X0.062500X0*%
%TD*%
%TA.AperFunction,HeatsinkPad*%
%ADD19R,3.450000X3.450000*%
%TD*%
%TA.AperFunction,SMDPad,CuDef*%
%ADD20RoundRect,0.237500X-0.250000X-0.237500X0.250000X-0.237500X0.250000X0.237500X-0.250000X0.237500X0*%
%TD*%
%TA.AperFunction,SMDPad,CuDef*%
%ADD21RoundRect,0.237500X0.237500X-0.250000X0.237500X0.250000X-0.237500X0.250000X-0.237500X-0.250000X0*%
%TD*%
%TA.AperFunction,ViaPad*%
%ADD22C,0.600000*%
%TD*%
%TA.AperFunction,ViaPad*%
%ADD23C,0.300000*%
%TD*%
%TA.AperFunction,Conductor*%
%ADD24C,0.200000*%
%TD*%
G04 APERTURE END LIST*
D10*
%TO.P,CC8,2*%
%TO.N,Earth*%
X82507500Y-72760000D03*
%TO.P,CC8,1*%
%TO.N,Net-(CPU1-VDD_SPI{slash}GPIO11)*%
X80782500Y-72760000D03*
%TD*%
D11*
%TO.P,REF\u002A\u002A,1*%
%TO.N,/GPIO18{slash}USB_D+*%
X69750000Y-63782500D03*
D12*
%TO.P,REF\u002A\u002A,2*%
%TO.N,/GPIO19{slash}USB_D-*%
X69750000Y-66322500D03*
%TD*%
D11*
%TO.P,REF\u002A\u002A,1*%
%TO.N,Earth*%
X78750000Y-71282500D03*
%TD*%
%TO.P,,1,Pin_1_1*%
%TO.N,+3V3*%
X71250000Y-61282500D03*
%TD*%
D10*
%TO.P,CC9,1*%
%TO.N,Net-(CPU1-VDD_SPI{slash}GPIO11)*%
X80782500Y-71250000D03*
%TO.P,CC9,2*%
%TO.N,Earth*%
X82507500Y-71250000D03*
%TD*%
D13*
%TO.P,CC4,1*%
%TO.N,+3V3*%
X79782500Y-62475000D03*
%TO.P,CC4,2*%
%TO.N,Earth*%
X79782500Y-60750000D03*
%TD*%
D14*
%TO.P,CC2,1*%
%TO.N,+3V3*%
X75032500Y-66250000D03*
%TO.P,CC2,2*%
%TO.N,Earth*%
X73307500Y-66250000D03*
%TD*%
D15*
%TO.P,OC2,1*%
%TO.N,/XTAL_P*%
X70782500Y-69525000D03*
%TO.P,OC2,2*%
%TO.N,Earth*%
X70782500Y-71250000D03*
%TD*%
D14*
%TO.P,CC1,1*%
%TO.N,+3V3*%
X75032500Y-64750000D03*
%TO.P,CC1,2*%
%TO.N,Earth*%
X73307500Y-64750000D03*
%TD*%
D16*
%TO.P,CYOC1,1,EN_1*%
%TO.N,/XTAL_N*%
X74182500Y-68900000D03*
%TO.P,CYOC1,2,GND_2*%
%TO.N,Earth*%
X74182500Y-71000000D03*
%TO.P,CYOC1,3,OUT_3*%
%TO.N,/XTAL_P*%
X72532500Y-71000000D03*
%TO.P,CYOC1,4,Vdd_4*%
%TO.N,Earth*%
X72532500Y-68900000D03*
%TD*%
D13*
%TO.P,CC6,1*%
%TO.N,+3V3*%
X76782500Y-62475000D03*
%TO.P,CC6,2*%
%TO.N,Earth*%
X76782500Y-60750000D03*
%TD*%
%TO.P,CC5,1*%
%TO.N,+3V3*%
X78282500Y-62475000D03*
%TO.P,CC5,2*%
%TO.N,Earth*%
X78282500Y-60750000D03*
%TD*%
D17*
%TO.P,CPU1,1,LNA_IN_1*%
%TO.N,unconnected-(CPU1-LNA_IN-Pad1)*%
X77757500Y-64095000D03*
%TO.P,CPU1,2,VDD3P3_2*%
%TO.N,+3V3*%
X78257500Y-64095000D03*
%TO.P,CPU1,3,VDD3P3_3*%
X78757500Y-64095000D03*
%TO.P,CPU1,4,XTAL_32K_P/ADC1_CH0_4*%
%TO.N,/ANALOG_INPUT*%
X79257500Y-64095000D03*
%TO.P,CPU1,5,XTAL_32K_N/ADC1_CH1_5*%
%TO.N,/GPIO1*%
X79757500Y-64095000D03*
%TO.P,CPU1,6,GPIO2/ADC1_CH2_6*%
%TO.N,/GPIO2*%
X80257500Y-64095000D03*
%TO.P,CPU1,7,CHIP_EN_7*%
%TO.N,/CHIP_EN*%
X80757500Y-64095000D03*
%TO.P,CPU1,8,GPIO3/ADC1_CH3_8*%
%TO.N,/GPIO3*%
X81257500Y-64095000D03*
D18*
%TO.P,CPU1,9,MTMS/GPIO4/ADC1_CH4_9*%
%TO.N,/GPIO4*%
X81945000Y-64782500D03*
%TO.P,CPU1,10,MTDI/GPIO5/ADC2_CH0_10*%
%TO.N,/GPIO5*%
X81945000Y-65282500D03*
%TO.P,CPU1,11,VDD3P3_RTC_11*%
%TO.N,+3V3*%
X81945000Y-65782500D03*
%TO.P,CPU1,12,MTCK/GPIO6_12*%
%TO.N,/GPIO6*%
X81945000Y-66282500D03*
%TO.P,CPU1,13,MTDO/GPIO7_13*%
%TO.N,/GPIO7*%
X81945000Y-66782500D03*
%TO.P,CPU1,14,GPIO8_14*%
%TO.N,/GPIO8*%
X81945000Y-67282500D03*
%TO.P,CPU1,15,GPIO9/BOOT_15*%
%TO.N,/GPIO9*%
X81945000Y-67782500D03*
%TO.P,CPU1,16,GPIO10_16*%
%TO.N,/GPIO10*%
X81945000Y-68282500D03*
D17*
%TO.P,CPU1,17,VDD3P3_CPU_17*%
%TO.N,+3V3*%
X81257500Y-68970000D03*
%TO.P,CPU1,18,VDD_SPI/GPIO11_18*%
%TO.N,Net-(CPU1-VDD_SPI{slash}GPIO11)*%
X80757500Y-68970000D03*
%TO.P,CPU1,19,SPIHD/GPIO12_19*%
%TO.N,unconnected-(CPU1-SPIHD{slash}GPIO12-Pad19)*%
X80257500Y-68970000D03*
%TO.P,CPU1,20,SPIWP/GPIO13_20*%
%TO.N,unconnected-(CPU1-SPIWP{slash}GPIO13-Pad20)*%
X79757500Y-68970000D03*
%TO.P,CPU1,21,SPICS0/GPIO14_21*%
%TO.N,unconnected-(CPU1-SPICS0{slash}GPIO14-Pad21)*%
X79257500Y-68970000D03*
%TO.P,CPU1,22,SPICLK/GPIO15_22*%
%TO.N,unconnected-(CPU1-SPICLK{slash}GPIO15-Pad22)*%
X78757500Y-68970000D03*
%TO.P,CPU1,23,SPID/GPIO16_23*%
%TO.N,unconnected-(CPU1-SPID{slash}GPIO16-Pad23)*%
X78257500Y-68970000D03*
%TO.P,CPU1,24,SPIQ/GPIO17_24*%
%TO.N,unconnected-(CPU1-SPIQ{slash}GPIO17-Pad24)*%
X77757500Y-68970000D03*
D18*
%TO.P,CPU1,25,GPIO18/USB_D-_25*%
%TO.N,/GPIO19{slash}USB_D-*%
X77070000Y-68282500D03*
%TO.P,CPU1,26,GPIO19/USB_D+_26*%
%TO.N,/GPIO18{slash}USB_D+*%
X77070000Y-67782500D03*
%TO.P,CPU1,27,U0RXD/GPIO20_27*%
%TO.N,/UARTRX*%
X77070000Y-67282500D03*
%TO.P,CPU1,28,U0TXD/GPIO21_28*%
%TO.N,/UARTTX*%
X77070000Y-66782500D03*
%TO.P,CPU1,29,XTAL_N_29*%
%TO.N,/XTAL_N*%
X77070000Y-66282500D03*
%TO.P,CPU1,30,XTAL_P_30*%
%TO.N,/XTAL_P*%
X77070000Y-65782500D03*
%TO.P,CPU1,31,VDDA_31*%
%TO.N,+3V3*%
X77070000Y-65282500D03*
%TO.P,CPU1,32,VDDA_32*%
X77070000Y-64782500D03*
D19*
%TO.P,CPU1,33,GND_33*%
%TO.N,Earth*%
X79507500Y-66532500D03*
%TD*%
D20*
%TO.P,CR1,1*%
%TO.N,/GPIO8*%
X83532500Y-67250000D03*
%TO.P,CR1,2*%
%TO.N,+3V3*%
X85357500Y-67250000D03*
%TD*%
D14*
%TO.P,CC3,1*%
%TO.N,Earth*%
X85507500Y-65750000D03*
%TO.P,CC3,2*%
%TO.N,+3V3*%
X83782500Y-65750000D03*
%TD*%
D15*
%TO.P,OC3,1*%
%TO.N,/XTAL_N*%
X76032500Y-70000000D03*
%TO.P,OC3,2*%
%TO.N,Earth*%
X76032500Y-71725000D03*
%TD*%
D21*
%TO.P,CR2,1*%
%TO.N,/GPIO2*%
X81282500Y-62575000D03*
%TO.P,CR2,2*%
%TO.N,+3V3*%
X81282500Y-60750000D03*
%TD*%
D10*
%TO.P,CC7,1*%
%TO.N,+3V3*%
X83057500Y-69750000D03*
%TO.P,CC7,2*%
%TO.N,Earth*%
X84782500Y-69750000D03*
%TD*%
D22*
%TO.N,Earth*%
X82282500Y-63750000D03*
X80532500Y-65500000D03*
X78536250Y-67503750D03*
X79475000Y-65557500D03*
X76831424Y-69216126D03*
X82255436Y-68966374D03*
X78282500Y-66500000D03*
X79507500Y-67475000D03*
X76782500Y-63750000D03*
X78503750Y-65528750D03*
X80782500Y-66532500D03*
X80503750Y-67528750D03*
D23*
%TO.N,/GPIO18{slash}USB_D+*%
X77070000Y-67782500D03*
%TO.N,/GPIO19{slash}USB_D-*%
X77070000Y-68282500D03*
%TD*%
%TO.N,+3V3*%
D24*
X77070000Y-65282500D02*
X77070000Y-64782500D01*
X78757500Y-64095000D02*
X78257500Y-64095000D01*
X78257500Y-62500000D02*
X78282500Y-62475000D01*
X82703278Y-69750000D02*
X81620000Y-70833278D01*
X85357500Y-68425000D02*
X85357500Y-67250000D01*
X69500000Y-72782500D02*
X69500000Y-68532500D01*
X78257500Y-64095000D02*
X78257500Y-62500000D01*
X69500000Y-68532500D02*
X72470000Y-65562500D01*
X72470000Y-63312500D02*
X72500000Y-63282500D01*
X71565000Y-61282500D02*
X75032500Y-64750000D01*
X72470000Y-65562500D02*
X72470000Y-63312500D01*
X75032500Y-64750000D02*
X75032500Y-66250000D01*
X81620000Y-73226722D02*
X81311722Y-73535000D01*
X75565000Y-65282500D02*
X75032500Y-64750000D01*
X71250000Y-61282500D02*
X71565000Y-61282500D01*
X82037500Y-69750000D02*
X83057500Y-69750000D01*
X83857500Y-65750000D02*
X85357500Y-67250000D01*
X83057500Y-69750000D02*
X82703278Y-69750000D01*
X71250000Y-61282500D02*
X75590000Y-61282500D01*
X72500000Y-63282500D02*
X72500000Y-62532500D01*
X81311722Y-73535000D02*
X70252500Y-73535000D01*
X81257500Y-68970000D02*
X82035000Y-69747500D01*
X79782500Y-62475000D02*
X79782500Y-62250000D01*
X81945000Y-65782500D02*
X83750000Y-65782500D01*
X83750000Y-65782500D02*
X83782500Y-65750000D01*
X79782500Y-62250000D02*
X81282500Y-60750000D01*
X81620000Y-70833278D02*
X81620000Y-73226722D01*
X78282500Y-62475000D02*
X76782500Y-62475000D01*
X70252500Y-73535000D02*
X69500000Y-72782500D01*
X85032500Y-68750000D02*
X85357500Y-68425000D01*
X72500000Y-62532500D02*
X71250000Y-61282500D01*
X77070000Y-65282500D02*
X75565000Y-65282500D01*
X83057500Y-69750000D02*
X84057500Y-68750000D01*
X82035000Y-69747500D02*
X82037500Y-69750000D01*
X84057500Y-68750000D02*
X85032500Y-68750000D01*
X78282500Y-62475000D02*
X79782500Y-62475000D01*
X75590000Y-61282500D02*
X76782500Y-62475000D01*
X83782500Y-65750000D02*
X83857500Y-65750000D01*
%TO.N,Earth*%
X82282500Y-60495778D02*
X82282500Y-63750000D01*
X84782500Y-69750000D02*
X83282500Y-71250000D01*
X70007500Y-68995778D02*
X70007500Y-70475000D01*
X75307500Y-71000000D02*
X76032500Y-71725000D01*
X86145000Y-68387500D02*
X84782500Y-69750000D01*
X76831424Y-70926076D02*
X76831424Y-69216126D01*
X70007500Y-70475000D02*
X70782500Y-71250000D01*
X79782500Y-60750000D02*
X80570000Y-59962500D01*
X85507500Y-65750000D02*
X86145000Y-66387500D01*
X83507500Y-63750000D02*
X82282500Y-63750000D01*
X80570000Y-59962500D02*
X81749222Y-59962500D01*
X73307500Y-66250000D02*
X72753278Y-66250000D01*
X71482500Y-71950000D02*
X73232500Y-71950000D01*
X79782500Y-60750000D02*
X78282500Y-60750000D01*
X72532500Y-68900000D02*
X72532500Y-69350000D01*
X73232500Y-71950000D02*
X74182500Y-71000000D01*
X83282500Y-71250000D02*
X82507500Y-71250000D01*
X74182500Y-71000000D02*
X75307500Y-71000000D01*
X81749222Y-59962500D02*
X82282500Y-60495778D01*
X82507500Y-72760000D02*
X82507500Y-71250000D01*
X78282500Y-60750000D02*
X76782500Y-60750000D01*
X73307500Y-64750000D02*
X73307500Y-66250000D01*
X72532500Y-69350000D02*
X74182500Y-71000000D01*
X72753278Y-66250000D02*
X70007500Y-68995778D01*
X76032500Y-71725000D02*
X76831424Y-70926076D01*
X85507500Y-65750000D02*
X83507500Y-63750000D01*
X86145000Y-66387500D02*
X86145000Y-68387500D01*
X70782500Y-71250000D02*
X71482500Y-71950000D01*
%TO.N,/GPIO2*%
X81282500Y-62575000D02*
X80257500Y-63600000D01*
X80257500Y-63600000D02*
X80257500Y-64095000D01*
%TO.N,/GPIO8*%
X83532500Y-67250000D02*
X81977500Y-67250000D01*
X81977500Y-67250000D02*
X81945000Y-67282500D01*
%TO.N,Net-(CPU1-VDD_SPI{slash}GPIO11)*%
X80757500Y-68970000D02*
X80757500Y-71225000D01*
X80757500Y-71225000D02*
X80782500Y-71250000D01*
X80782500Y-71250000D02*
X80782500Y-72760000D01*
%TO.N,/XTAL_P*%
X70782500Y-69165256D02*
X72922756Y-67025000D01*
X70782500Y-69525000D02*
X70782500Y-69165256D01*
X75870000Y-65912500D02*
X76000000Y-65782500D01*
X70782500Y-69525000D02*
X71057500Y-69525000D01*
X71057500Y-69525000D02*
X72532500Y-71000000D01*
X76000000Y-65782500D02*
X77070000Y-65782500D01*
X75870000Y-66716722D02*
X75870000Y-65912500D01*
X72922756Y-67025000D02*
X75561722Y-67025000D01*
X75561722Y-67025000D02*
X75870000Y-66716722D01*
%TO.N,/XTAL_N*%
X74932500Y-68900000D02*
X76032500Y-70000000D01*
X76270000Y-67362500D02*
X74732500Y-68900000D01*
X76270000Y-66630614D02*
X76270000Y-67362500D01*
X74732500Y-68900000D02*
X74182500Y-68900000D01*
X77070000Y-66282500D02*
X76618114Y-66282500D01*
X76618114Y-66282500D02*
X76270000Y-66630614D01*
X74182500Y-68900000D02*
X74932500Y-68900000D01*
%TD*%
M02*
